<?xml version="1.0" encoding="utf-8"?>
<!-- Generator: Adobe Illustrator 24.0.2, SVG Export Plug-In . SVG Version: 6.00 Build 0)  -->
<svg version="1.1" id="Capa_1" xmlns="http://www.w3.org/2000/svg" xmlns:xlink="http://www.w3.org/1999/xlink" x="0px" y="0px"
	 viewBox="0 0 148.23 60.54" style="enable-background:new 0 0 148.23 60.54;" xml:space="preserve">
<style type="text/css">
	.st0{fill:#CF2127;}
	.st1{fill:#D01F27;}
	.st2{fill:#FFFFFF;}
	.st3{fill:#F5A322;}
	.st4{fill:#676767;}
</style>
<g>
	<g>
		<g>
			<path class="st0" d="M30.76,59.77C14.18,59.73,1.43,46.82,1.5,30.13C1.56,13.73,15.68,0.9,31.71,1.34
				c15.54,0.43,28.45,13.42,28.4,29.32C60.05,46.95,47.08,59.81,30.76,59.77z M30.85,56.18c14.36-0.08,25.66-11.6,25.61-26.09
				C56.4,16.26,44.61,4.94,30.33,5.01C16.43,5.09,5.09,16.73,5.16,30.86C5.23,44.82,16.84,56.26,30.85,56.18z"/>
			<g>
				<path class="st1" d="M66.22,29.44c0-3.81,0.04-7.61-0.02-11.42c-0.02-1.17,0.32-1.59,1.54-1.6c3.69-0.02,4.72,0.91,4.74,4.6
					c0.01,2.31,0.05,4.61-0.01,6.92c-0.03,1.09,0.32,1.55,1.46,1.52c1.93-0.06,3.86-0.04,5.79,0c2.33,0.05,3.5,1.14,3.55,3.42
					c0.06,2.73,0.05,5.47-0.01,8.2c-0.05,2.12-1.19,3.29-3.32,3.33c-3.43,0.07-6.86,0.06-10.29-0.01c-2.32-0.05-3.42-1.25-3.42-3.54
					C66.2,37.05,66.21,33.24,66.22,29.44C66.21,29.44,66.21,29.44,66.22,29.44z M72.49,36.84c0,0.86-0.03,1.72,0.01,2.57
					c0.06,1.34,0.87,2.07,2.13,2.18c1.25,0.12,2.18-0.62,2.28-1.79c0.17-1.91,0.17-3.86,0-5.76c-0.11-1.17-1.03-1.87-2.29-1.79
					c-1.32,0.09-2.04,0.86-2.12,2.18C72.45,35.23,72.49,36.04,72.49,36.84z"/>
			</g>
			<g>
				<path class="st1" d="M133.72,30.47c0,3.38,0.01,6.76,0,10.14c-0.01,2.68-1.03,3.77-3.65,3.8c-3.27,0.05-6.55,0.06-9.82,0
					c-2.44-0.04-3.52-1.17-3.54-3.6c-0.02-2.63-0.02-5.26,0-7.89c0.02-2.31,1.1-3.42,3.46-3.48c1.88-0.05,3.76-0.1,5.63,0.01
					c1.39,0.08,1.73-0.47,1.71-1.76c-0.06-3.27,0.03-6.54-0.02-9.82c-0.02-1.13,0.4-1.61,1.5-1.44c1.15,0.18,2.51,0.1,3.36,0.71
					c0.75,0.54,1.27,1.86,1.31,2.86C133.82,23.49,133.72,26.98,133.72,30.47z M127.48,37c0-0.86,0.06-1.72-0.01-2.57
					c-0.11-1.28-0.82-2.13-2.14-2.19c-1.3-0.06-2.23,0.68-2.33,1.96c-0.14,1.81-0.14,3.65,0.01,5.46c0.1,1.27,1.03,2.02,2.34,1.95
					c1.3-0.08,2.03-0.9,2.13-2.2C127.53,38.61,127.48,37.8,127.48,37z"/>
			</g>
			<path class="st1" d="M103.86,29.44c2.04,0,4.07-0.03,6.11,0.01c2,0.04,3.24,1.16,3.31,3.18c0.1,2.84,0.09,5.68,0.01,8.52
				c-0.06,2.01-1.32,3.22-3.09,3.21c-1.86-0.01-3.1-1.29-3.13-3.32c-0.03-2.04,0.02-4.07-0.03-6.11c-0.04-1.75-0.91-2.72-2.31-2.69
				c-1.4,0.03-2.23,1-2.26,2.75c-0.03,1.98,0.02,3.97-0.02,5.95c-0.04,2.12-1.33,3.49-3.2,3.45c-1.81-0.04-3.04-1.38-3.05-3.43
				c-0.03-3.38,0.03-6.75-0.02-10.13c-0.01-1.04,0.34-1.43,1.4-1.4c2.09,0.06,4.18,0.02,6.27,0.02
				C103.86,29.44,103.86,29.44,103.86,29.44z"/>
			<path class="st1" d="M86.62,29.46c1.21,0,2.22-0.05,3.23,0.01c1.74,0.11,2.89,1.24,2.93,3c0.06,2.94,0.06,5.88,0.01,8.82
				c-0.03,1.78-1.22,2.96-2.87,3.06c-1.65,0.1-3.19-0.96-3.25-2.65C86.53,37.71,86.62,33.71,86.62,29.46z"/>
			<path class="st1" d="M137.1,29.47c1.3,0,2.36-0.07,3.41,0.02c1.72,0.15,2.78,1.33,2.8,3.11c0.04,2.83,0.03,5.67,0.01,8.5
				c-0.02,1.97-1.2,3.23-2.98,3.26c-1.78,0.04-3.11-1.15-3.19-3.1c-0.1-2.56-0.04-5.13-0.05-7.7
				C137.1,32.24,137.1,30.92,137.1,29.47z"/>
			<path class="st2" d="M30.85,56.18C16.84,56.26,5.23,44.82,5.16,30.86C5.09,16.73,16.43,5.09,30.33,5.01
				C44.61,4.94,56.4,16.26,56.46,30.09C56.51,44.58,45.21,56.1,30.85,56.18z M30.73,7.85c-12.67,0-22.82,10.14-22.81,22.8
				c0.01,12.62,10.13,22.66,22.92,22.72C43.4,53.43,53.6,43.27,53.6,30.7C53.61,17.86,43.59,7.85,30.73,7.85z"/>
			<g>
				<path class="st1" d="M30.73,7.85c12.86,0,22.87,10.01,22.87,22.86c0,12.57-10.2,22.73-22.76,22.67
					C18.06,53.31,7.93,43.27,7.92,30.65C7.91,17.99,18.06,7.84,30.73,7.85z M22.75,16.32c-0.07,0.5-0.14,0.76-0.14,1.02
					c-0.01,8.05-0.03,16.09,0.01,24.14c0.01,2.1,1.43,3.37,3.68,3.4c3.38,0.04,6.76,0.03,10.14,0c2.57-0.02,3.85-1.31,3.88-3.87
					c0.02-2.41,0.01-4.83,0.01-7.24c0-3.21-1.15-4.37-4.35-4.37c-2.17,0-4.35,0-6.7,0c0-0.83,0-1.41,0-1.99
					c0-2.57,0.02-5.15-0.02-7.72c-0.03-1.89-1.18-3.17-3.02-3.34C25.12,16.24,23.99,16.32,22.75,16.32z M33.91,22.75
					c0,0.48-0.05,0.97,0.01,1.44c0.22,1.76,1.6,2.81,3.4,2.63c1.64-0.16,2.77-1.52,2.68-3.22c-0.1-1.93-1.45-2.9-4.03-2.9
					C33.78,20.7,33.78,20.7,33.91,22.75z"/>
			</g>
			<path class="st2" d="M22.75,16.32c1.25,0,2.37-0.08,3.47,0.02c1.84,0.17,2.99,1.45,3.02,3.34c0.04,2.57,0.02,5.15,0.02,7.72
				c0,0.58,0,1.16,0,1.99c2.35,0,4.53,0,6.7,0c3.19,0,4.34,1.16,4.35,4.37c0,2.41,0.02,4.83-0.01,7.24
				c-0.03,2.56-1.31,3.85-3.88,3.87c-3.38,0.03-6.76,0.03-10.14,0c-2.25-0.03-3.67-1.29-3.68-3.4c-0.04-8.05-0.01-16.09-0.01-24.14
				C22.61,17.08,22.68,16.82,22.75,16.32z M33.58,37.14c-0.01,0-0.03,0-0.04,0c0-0.91,0.09-1.82-0.02-2.71
				c-0.15-1.15-0.93-1.82-2.09-1.82c-1.16,0-1.97,0.69-2.05,1.84c-0.11,1.75-0.13,3.52-0.02,5.27c0.08,1.3,0.95,2.04,2.27,1.95
				c1.26-0.08,1.87-0.92,1.95-2.13C33.62,38.74,33.58,37.94,33.58,37.14z"/>
			<path class="st3" d="M33.91,22.75c-0.14-2.06-0.14-2.06,2.06-2.05c2.59,0.01,3.93,0.98,4.03,2.9c0.09,1.71-1.04,3.07-2.68,3.22
				c-1.8,0.17-3.18-0.87-3.4-2.63C33.86,23.72,33.91,23.23,33.91,22.75z"/>
			<path class="st3" d="M86.07,23.4c-0.14-2.06-0.14-2.06,2.06-2.05c2.59,0.01,3.93,0.98,4.03,2.9c0.09,1.71-1.04,3.07-2.68,3.22
				c-1.8,0.17-3.18-0.87-3.4-2.63C86.02,24.37,86.07,23.88,86.07,23.4z"/>
			<path class="st3" d="M136.95,23.4c-0.14-2.06-0.14-2.06,2.06-2.05c2.59,0.01,3.93,0.98,4.03,2.9c0.09,1.71-1.04,3.07-2.68,3.22
				c-1.8,0.17-3.18-0.87-3.4-2.63C136.9,24.37,136.95,23.88,136.95,23.4z"/>
			<path class="st1" d="M33.58,37.14c0,0.8,0.04,1.6-0.01,2.4c-0.07,1.21-0.69,2.05-1.95,2.13c-1.32,0.08-2.19-0.66-2.27-1.95
				c-0.11-1.75-0.09-3.52,0.02-5.27c0.08-1.15,0.89-1.84,2.05-1.84c1.15,0,1.94,0.67,2.09,1.82c0.12,0.89,0.02,1.81,0.02,2.71
				C33.55,37.14,33.56,37.14,33.58,37.14z"/>
		</g>
		<path class="st3" d="M143.26,50.35H70.99c-1.52,0-2.75-1.23-2.75-2.75v-0.79h72.4c1.45,0,2.62,1.17,2.62,2.62V50.35z"/>
	</g>
	<g>
		<path class="st4" d="M69.69,53.29h-1.21v-0.44h2.94v0.44h-1.21v3.54h-0.52V53.29z"/>
		<path class="st4" d="M71.81,52.64h0.52v1.78h0.01c0.08-0.15,0.21-0.28,0.37-0.37c0.15-0.09,0.34-0.15,0.53-0.15
			c0.38,0,1,0.24,1,1.22v1.7h-0.52v-1.64c0-0.46-0.17-0.85-0.66-0.85c-0.34,0-0.6,0.24-0.7,0.52c-0.03,0.07-0.04,0.15-0.04,0.25
			v1.72h-0.52V52.64z"/>
		<path class="st4" d="M75.08,54.86c0-0.34-0.01-0.62-0.02-0.89h0.45l0.02,0.56h0.02c0.13-0.38,0.44-0.63,0.79-0.63
			c0.06,0,0.1,0.01,0.15,0.02v0.49c-0.05-0.01-0.11-0.02-0.18-0.02c-0.37,0-0.63,0.28-0.7,0.67c-0.01,0.07-0.02,0.15-0.02,0.24v1.52
			h-0.51V54.86z"/>
		<path class="st4" d="M79.4,56.05c0,0.29,0.01,0.55,0.02,0.78h-0.46l-0.03-0.47h-0.01c-0.14,0.23-0.44,0.53-0.94,0.53
			c-0.45,0-0.98-0.25-0.98-1.25v-1.67h0.52v1.58c0,0.54,0.16,0.91,0.64,0.91c0.35,0,0.59-0.24,0.68-0.47
			c0.03-0.08,0.05-0.17,0.05-0.27v-1.75h0.52V56.05z"/>
		<path class="st4" d="M82.13,53.15v0.82h0.74v0.39h-0.74v1.54c0,0.35,0.1,0.55,0.39,0.55c0.14,0,0.24-0.02,0.3-0.03l0.02,0.39
			c-0.1,0.04-0.26,0.07-0.46,0.07c-0.24,0-0.44-0.08-0.56-0.22c-0.15-0.15-0.2-0.41-0.2-0.74v-1.56h-0.44v-0.39h0.44v-0.68
			L82.13,53.15z"/>
		<path class="st4" d="M83.46,52.64h0.52v1.78h0.01c0.08-0.15,0.21-0.28,0.37-0.37c0.15-0.09,0.34-0.15,0.53-0.15
			c0.38,0,1,0.24,1,1.22v1.7h-0.52v-1.64c0-0.46-0.17-0.85-0.66-0.85c-0.34,0-0.6,0.24-0.7,0.52c-0.03,0.07-0.03,0.15-0.03,0.25
			v1.72h-0.52V52.64z"/>
		<path class="st4" d="M87.02,55.49c0.01,0.7,0.46,0.99,0.98,0.99c0.37,0,0.59-0.06,0.79-0.15l0.09,0.37
			c-0.18,0.08-0.49,0.18-0.95,0.18c-0.88,0-1.4-0.58-1.4-1.44c0-0.86,0.51-1.54,1.34-1.54c0.93,0,1.18,0.82,1.18,1.34
			c0,0.11-0.01,0.19-0.02,0.24H87.02z M88.54,55.12c0.01-0.33-0.14-0.84-0.72-0.84c-0.52,0-0.75,0.48-0.8,0.84H88.54z"/>
		<path class="st4" d="M91.14,53.97l0.38,1.45c0.08,0.32,0.16,0.61,0.21,0.91h0.02c0.07-0.29,0.16-0.59,0.25-0.9l0.47-1.46h0.44
			l0.44,1.43c0.11,0.34,0.19,0.64,0.25,0.93h0.02c0.05-0.29,0.12-0.59,0.22-0.93l0.41-1.43h0.51l-0.92,2.85h-0.47l-0.44-1.36
			c-0.1-0.32-0.18-0.6-0.25-0.94h-0.01c-0.07,0.34-0.16,0.64-0.26,0.94l-0.46,1.36h-0.47l-0.86-2.85H91.14z"/>
		<path class="st4" d="M97.8,55.38c0,1.06-0.73,1.52-1.42,1.52c-0.77,0-1.37-0.57-1.37-1.47c0-0.95,0.62-1.52,1.42-1.52
			C97.25,53.91,97.8,54.5,97.8,55.38z M95.54,55.41c0,0.62,0.36,1.1,0.87,1.1c0.5,0,0.87-0.47,0.87-1.11c0-0.48-0.24-1.1-0.85-1.1
			C95.8,54.3,95.54,54.86,95.54,55.41z"/>
		<path class="st4" d="M98.46,54.86c0-0.34-0.01-0.62-0.02-0.89h0.45l0.02,0.56h0.02c0.13-0.38,0.44-0.63,0.79-0.63
			c0.06,0,0.1,0.01,0.15,0.02v0.49c-0.05-0.01-0.11-0.02-0.18-0.02c-0.37,0-0.62,0.28-0.7,0.67c-0.01,0.07-0.02,0.15-0.02,0.24v1.52
			h-0.51V54.86z"/>
		<path class="st4" d="M100.41,52.64h0.52v4.19h-0.52V52.64z"/>
		<path class="st4" d="M104.26,52.64v3.45c0,0.25,0.01,0.54,0.02,0.74h-0.47l-0.02-0.5h-0.01c-0.16,0.32-0.51,0.56-0.97,0.56
			c-0.69,0-1.22-0.58-1.22-1.45c-0.01-0.95,0.58-1.53,1.28-1.53c0.44,0,0.73,0.21,0.86,0.44h0.01v-1.7H104.26z M103.74,55.13
			c0-0.07-0.01-0.15-0.02-0.22c-0.08-0.33-0.36-0.6-0.75-0.6c-0.54,0-0.85,0.47-0.85,1.1c0,0.58,0.28,1.06,0.84,1.06
			c0.35,0,0.67-0.23,0.76-0.62c0.02-0.07,0.02-0.14,0.02-0.22V55.13z"/>
		<path class="st4" d="M106.58,53.97l0.38,1.45c0.08,0.32,0.16,0.61,0.21,0.91h0.02c0.07-0.29,0.16-0.59,0.25-0.9l0.47-1.46h0.44
			l0.44,1.43c0.11,0.34,0.19,0.64,0.25,0.93h0.02c0.05-0.29,0.12-0.59,0.22-0.93l0.41-1.43h0.51l-0.92,2.85h-0.47l-0.44-1.36
			c-0.1-0.32-0.18-0.6-0.25-0.94h-0.01c-0.07,0.34-0.16,0.64-0.26,0.94l-0.46,1.36h-0.47l-0.86-2.85H106.58z"/>
		<path class="st4" d="M111.29,53.17c0.01,0.18-0.12,0.32-0.33,0.32c-0.18,0-0.31-0.14-0.31-0.32c0-0.18,0.14-0.33,0.32-0.33
			C111.17,52.85,111.29,52.99,111.29,53.17z M110.71,56.83v-2.85h0.52v2.85H110.71z"/>
		<path class="st4" d="M112.72,53.15v0.82h0.74v0.39h-0.74v1.54c0,0.35,0.1,0.55,0.39,0.55c0.14,0,0.24-0.02,0.3-0.03l0.02,0.39
			c-0.1,0.04-0.26,0.07-0.46,0.07c-0.24,0-0.44-0.08-0.56-0.22c-0.15-0.15-0.2-0.41-0.2-0.74v-1.56h-0.44v-0.39h0.44v-0.68
			L112.72,53.15z"/>
		<path class="st4" d="M114.04,52.64h0.52v1.78h0.01c0.08-0.15,0.21-0.28,0.37-0.37c0.15-0.09,0.34-0.15,0.53-0.15
			c0.38,0,1,0.24,1,1.22v1.7h-0.52v-1.64c0-0.46-0.17-0.85-0.66-0.85c-0.34,0-0.6,0.24-0.7,0.52c-0.03,0.07-0.03,0.15-0.03,0.25
			v1.72h-0.52V52.64z"/>
		<path class="st4" d="M119.9,55.38c0,1.06-0.73,1.52-1.42,1.52c-0.77,0-1.37-0.57-1.37-1.47c0-0.95,0.62-1.52,1.42-1.52
			C119.35,53.91,119.9,54.5,119.9,55.38z M117.63,55.41c0,0.62,0.36,1.1,0.87,1.1c0.5,0,0.87-0.47,0.87-1.11
			c0-0.48-0.24-1.1-0.85-1.1C117.9,54.3,117.63,54.86,117.63,55.41z"/>
		<path class="st4" d="M122.94,56.05c0,0.29,0.01,0.55,0.02,0.78h-0.46l-0.03-0.47h-0.01c-0.14,0.23-0.44,0.53-0.94,0.53
			c-0.45,0-0.99-0.25-0.99-1.25v-1.67h0.52v1.58c0,0.54,0.17,0.91,0.64,0.91c0.35,0,0.59-0.24,0.68-0.47
			c0.03-0.08,0.05-0.17,0.05-0.27v-1.75h0.52V56.05z"/>
		<path class="st4" d="M124.43,53.15v0.82h0.74v0.39h-0.74v1.54c0,0.35,0.1,0.55,0.39,0.55c0.14,0,0.24-0.02,0.3-0.03l0.02,0.39
			c-0.1,0.04-0.26,0.07-0.46,0.07c-0.24,0-0.44-0.08-0.56-0.22c-0.15-0.15-0.2-0.41-0.2-0.74v-1.56h-0.44v-0.39h0.44v-0.68
			L124.43,53.15z"/>
		<path class="st4" d="M127.06,56.83v-2.46h-0.4v-0.39h0.4v-0.14c0-0.4,0.09-0.77,0.33-1c0.19-0.19,0.45-0.26,0.7-0.26
			c0.18,0,0.34,0.04,0.44,0.08l-0.07,0.4c-0.08-0.03-0.18-0.07-0.33-0.07c-0.44,0-0.56,0.39-0.56,0.83v0.15h0.69v0.39h-0.69v2.46
			H127.06z"/>
		<path class="st4" d="M128.73,54.86c0-0.34-0.01-0.62-0.02-0.89h0.45l0.02,0.56h0.02c0.13-0.38,0.44-0.63,0.79-0.63
			c0.06,0,0.1,0.01,0.15,0.02v0.49c-0.05-0.01-0.11-0.02-0.18-0.02c-0.37,0-0.62,0.28-0.7,0.67c-0.01,0.07-0.02,0.15-0.02,0.24v1.52
			h-0.51V54.86z"/>
		<path class="st4" d="M133.18,55.38c0,1.06-0.73,1.52-1.42,1.52c-0.77,0-1.37-0.57-1.37-1.47c0-0.95,0.62-1.52,1.42-1.52
			C132.62,53.91,133.18,54.5,133.18,55.38z M130.91,55.41c0,0.62,0.36,1.1,0.87,1.1c0.5,0,0.87-0.47,0.87-1.11
			c0-0.48-0.24-1.1-0.85-1.1C131.18,54.3,130.91,54.86,130.91,55.41z"/>
		<path class="st4" d="M133.83,54.74c0-0.29-0.01-0.54-0.02-0.77h0.46l0.03,0.47h0.01c0.14-0.27,0.47-0.54,0.94-0.54
			c0.39,0,1.01,0.24,1.01,1.21v1.7h-0.52v-1.65c0-0.46-0.17-0.84-0.66-0.84c-0.34,0-0.61,0.24-0.7,0.53
			c-0.02,0.07-0.03,0.15-0.03,0.24v1.72h-0.52V54.74z"/>
		<path class="st4" d="M137.71,53.15v0.82h0.74v0.39h-0.74v1.54c0,0.35,0.1,0.55,0.39,0.55c0.14,0,0.24-0.02,0.3-0.03l0.02,0.39
			c-0.1,0.04-0.26,0.07-0.46,0.07c-0.24,0-0.44-0.08-0.56-0.22c-0.15-0.15-0.2-0.41-0.2-0.74v-1.56h-0.44v-0.39h0.44v-0.68
			L137.71,53.15z"/>
		<path class="st4" d="M139.61,53.17c0.01,0.18-0.12,0.32-0.33,0.32c-0.18,0-0.31-0.14-0.31-0.32c0-0.18,0.14-0.33,0.32-0.33
			C139.49,52.85,139.61,52.99,139.61,53.17z M139.03,56.83v-2.85h0.52v2.85H139.03z"/>
		<path class="st4" d="M140.7,55.49c0.01,0.7,0.46,0.99,0.98,0.99c0.37,0,0.6-0.06,0.79-0.15l0.09,0.37
			c-0.18,0.08-0.49,0.18-0.95,0.18c-0.88,0-1.4-0.58-1.4-1.44c0-0.86,0.51-1.54,1.34-1.54c0.93,0,1.18,0.82,1.18,1.34
			c0,0.11-0.01,0.19-0.02,0.24H140.7z M142.22,55.12c0.01-0.33-0.14-0.84-0.72-0.84c-0.52,0-0.75,0.48-0.8,0.84H142.22z"/>
		<path class="st4" d="M143.37,54.86c0-0.34-0.01-0.62-0.02-0.89h0.45l0.02,0.56h0.02c0.13-0.38,0.44-0.63,0.79-0.63
			c0.06,0,0.1,0.01,0.15,0.02v0.49c-0.05-0.01-0.11-0.02-0.18-0.02c-0.37,0-0.62,0.28-0.7,0.67c-0.01,0.07-0.02,0.15-0.02,0.24v1.52
			h-0.51V54.86z"/>
		<path class="st4" d="M145.22,56.3c0.15,0.1,0.42,0.21,0.68,0.21c0.38,0,0.55-0.19,0.55-0.42c0-0.25-0.15-0.38-0.53-0.52
			c-0.51-0.18-0.75-0.47-0.75-0.81c0-0.46,0.37-0.84,0.98-0.84c0.29,0,0.54,0.08,0.7,0.18l-0.13,0.38
			c-0.11-0.07-0.32-0.17-0.58-0.17c-0.31,0-0.48,0.18-0.48,0.39c0,0.24,0.17,0.34,0.54,0.48c0.49,0.19,0.75,0.44,0.75,0.86
			c0,0.5-0.39,0.86-1.07,0.86c-0.31,0-0.6-0.08-0.8-0.2L145.22,56.3z"/>
	</g>
</g>
</svg>
