<svg id="Capa_1" data-name="Capa 1" xmlns="http://www.w3.org/2000/svg" viewBox="0 0 2140.95 704.85"><defs><style>.cls-1{fill:#f9a41e;}.cls-2{fill:none;stroke:#ce2128;stroke-miterlimit:10;stroke-width:2px;stroke-dasharray:4 5;}.cls-3{fill:#ec1e24;}</style></defs><title>curva-inicio</title><path class="cls-1" d="M2055.13-129.74c-23.81,171.49-31.92,346.76-67.28,516C1952.67,554.71,1873.47,661.34,1694.62,676c-212.43,17.4-435.09-31.78-644.23-61.7Q-591.45,379.42-484.24-852.76c63.07-726.89,621.61-1234.91,1324.3-1204.51,773.53,33.46,1292.79,557.74,1283.48,1314.65-2.42,195.91-34.92,389.54-64.06,582.78Q2057.21-144.81,2055.13-129.74Z"/><path class="cls-2" d="M1948.68,467.83c-57,89.22-129,175.81-227.31,209.26-59.55,20.26-123.81,19.2-186.31,14.19-426-34.13-818.52-238.14-1212.65-408.41-108.15-46.72-247-85.94-330.9-1.43C-85.79,359.27-61.64,497.92,3.27,587S163.58,736.07,236.6,818.2c167.3,188.17,192.33,495.1,58,709.61-59,94.23-154.92,174.08-263.6,172.8S-183,1586.21-149.93,1479.35c6.07-19.56,16.59-38.25,32.68-50.34,22.65-17,52.86-18.67,80.69-15.45,154.08,17.82,271.11,166.58,300.91,323.67s-10.63,319.26-64.6,469.32S77.59,2502.68,48.69,2660"/><path class="cls-3" d="M2077.41,339.79Q2054,380,2030.51,420.26c-1.64,2.82-2,2.94-5.08,1.77-8.29-3.12-16.6-6.2-24.84-9.43a3.59,3.59,0,0,0-4.37.87c-8.34,7.74-16.79,15.36-25.14,23.09-1.17,1.09-2.14.61-3.28.28a2.32,2.32,0,0,1-1.83-2.15c-2-12-4.08-24-6-36a2.67,2.67,0,0,0-2-2.24l-30-12.68c-1.22-.52-2.36-1.15-2.31-2.65s1.19-2.06,2.49-2.44L2063.29,339c3.84-1.13,7.67-2.27,11.52-3.36,1.93-.54,3.27.36,3.3,2.16A3.59,3.59,0,0,1,2077.41,339.79Zm-88.86,63c0,.79.65.73,1,.86,11.86,4.5,23.74,9,35.6,13.45,1.08.41,1.75.37,2.39-.73q20.37-35.07,40.79-70.11a3.12,3.12,0,0,0,.09-.43Zm-53.49-21.38c0,.65.47.64.79.78,8,3.4,16,6.77,24,10.2a3.59,3.59,0,0,0,3.38-.11q43.56-22.12,87.16-44.19c.33-.17.79-.19,1-.83Zm45.47,22.87a8.92,8.92,0,0,1,3.07-3.57q32.13-22.86,64.24-45.79a1,1,0,0,0,.44-.59c-.54.25-1.08.48-1.61.74q-40.38,20.46-80.78,40.9c-1.19.6-1.68,1.16-1.43,2.58,1.68,9.55,3.27,19.11,5,29C1973.25,419.55,1976.93,411.93,1980.53,404.28Zm3.65,14.13c2.66-2.42,5.29-4.86,8-7.26,1-.87,1-1.34-.33-1.8-2-.69-4.07-1.51-6.08-2.3-.72-.28-1.28-.38-1.69.48q-4.41,9.24-8.84,18.47l.38.21Z"/></svg>