<svg id="Capa_1" data-name="Capa 1" xmlns="http://www.w3.org/2000/svg" viewBox="0 0 898.94 792"><defs><style>.cls-1{fill:#ce2128;}.cls-2{fill:#fff;}</style></defs><title>hecho-en-colombia</title><path class="cls-1" d="M233.17,582.91a282.41,282.41,0,0,1-9-363.69l2.69,2.15a278.94,278.94,0,0,0,8.93,359.25Z"/><path class="cls-1" d="M705.19,509.93l-3.15-1.4a279,279,0,0,0-100-345.18l1.91-2.86A282.42,282.42,0,0,1,705.19,509.93Z"/><path class="cls-1" d="M504.88,777.33C294.32,809.88,96.53,665.07,64,454.5S176.24,46.16,386.8,13.6,795.15,125.86,827.7,336.42,715.44,744.77,504.88,777.33ZM387.5,18.14C179.44,50.31,36.35,245.74,68.52,453.8s227.6,351.15,435.66,319,351.15-227.61,319-435.66S595.56-14,387.5,18.14Z"/><path class="cls-1" d="M501.43,755C303.17,785.66,117,649.31,86.29,451.05S192,66.57,390.25,35.92s384.48,105.7,415.13,304S699.68,724.36,501.43,755ZM392.36,49.54C201.61,79,70.43,258.21,99.92,449s208.66,321.93,399.4,292.44S821.25,532.72,791.76,342,583.1,20.05,392.36,49.54Z"/><path class="cls-1" d="M480.56,620c-123.82,19.14-240.13-66-259.28-189.84s66-240.13,189.84-259.27,240.13,66,259.27,189.84S604.37,600.87,480.56,620ZM411.82,175.45c-121.31,18.76-204.75,132.71-186,254s132.71,204.75,254,186,204.76-132.71,186-254S533.14,156.7,411.82,175.45Z"/><path class="cls-1" d="M884.16,412.78c4.31,6.67,2,13-5,14.12L42.28,556.29c-7.08,1.09-11.16-4.28-9.07-11.95l20.43-74.89c2.09-7.67.28-19.4-4-26.07L7.52,378.15c-4.31-6.67-2-13,5-14.12L849.4,234.65c7.08-1.1,11.16,4.28,9.07,11.94L838,321.48c-2.09,7.67-.28,19.4,4,26.07Z"/><polygon class="cls-1" points="414.25 191.12 421.23 201.07 433.39 200.96 426.08 210.68 429.94 222.21 418.44 218.26 408.67 225.5 408.87 213.34 398.96 206.28 410.59 202.72 414.25 191.12"/><polygon class="cls-1" points="493.27 199.35 496.03 211.19 507.36 215.62 496.95 221.91 496.24 234.05 487.03 226.1 475.27 229.17 479.99 217.96 473.43 207.72 485.55 208.75 493.27 199.35"/><polygon class="cls-1" points="563.64 231.87 562.69 244 572.14 251.65 560.32 254.49 555.96 265.85 549.6 255.48 537.45 254.84 545.35 245.59 542.2 233.84 553.44 238.49 563.64 231.87"/><polygon class="cls-1" points="341.4 222.83 342.34 234.95 332.88 242.6 344.7 245.45 349.05 256.81 355.42 246.45 367.56 245.82 359.68 236.56 362.83 224.82 351.59 229.46 341.4 222.83"/><polygon class="cls-1" points="284.13 275.08 288.7 286.36 282 296.51 294.13 295.65 301.72 305.16 304.65 293.35 316.03 289.08 305.71 282.64 305.17 270.49 295.86 278.32 284.13 275.08"/><polygon class="cls-1" points="477.43 599.82 470.45 589.86 458.29 589.97 465.6 580.25 461.73 568.72 473.24 572.67 483.01 565.43 482.81 577.59 492.71 584.65 481.09 588.22 477.43 599.82"/><polygon class="cls-1" points="398.41 591.59 395.64 579.74 384.32 575.31 394.73 569.02 395.44 556.88 404.64 564.83 416.41 561.76 411.69 572.97 418.25 583.21 406.13 582.18 398.41 591.59"/><polygon class="cls-1" points="328.04 559.06 328.99 546.94 319.54 539.28 331.36 536.44 335.72 525.08 342.08 535.45 354.22 536.09 346.33 545.34 349.48 557.09 338.24 552.44 328.04 559.06"/><polygon class="cls-1" points="550.28 568.11 549.34 555.98 558.8 548.33 546.98 545.48 542.63 534.12 536.26 544.48 524.11 545.11 532 554.37 528.84 566.11 540.09 561.47 550.28 568.11"/><polygon class="cls-1" points="607.55 515.85 602.98 504.57 609.68 494.42 597.55 495.28 589.96 485.77 587.03 497.58 575.64 501.85 585.96 508.29 586.51 520.44 595.82 512.61 607.55 515.85"/><path class="cls-1" d="M267.28,203.82l-7.61,7L229.32,178l7.61-7ZM270.33,176l-16.06,14.83-5.94-6.43,16.06-14.83Zm-18.47-18.87,7.61-7L289.82,183l-7.61,7Z"/><path class="cls-1" d="M301.37,165.08l20.39-13.3,4.54,7-29,18.92-24.44-37.47,28.31-18.47,4.54,7L286,141.53Zm-10.7-15,18-11.76,4.4,6.74-18,11.77Z"/><path class="cls-1" d="M352.25,147.59a26.75,26.75,0,0,1-9.49,2.3,22.36,22.36,0,0,1-16.59-6,24.46,24.46,0,0,1-7.42-17,22,22,0,0,1,1.74-8.78,23.07,23.07,0,0,1,5.12-7.51,26.88,26.88,0,0,1,8.17-5.41,26.22,26.22,0,0,1,10.44-2.37,20.56,20.56,0,0,1,9.6,2.26l-3.64,8.28a15.47,15.47,0,0,0-6.25-1.55,14.45,14.45,0,0,0-6.15,1.25,15.89,15.89,0,0,0-4.86,3.24,13.09,13.09,0,0,0-3,4.51,13.55,13.55,0,0,0-.91,5.35,16.53,16.53,0,0,0,4.66,10.66,13.52,13.52,0,0,0,4.54,3,12.94,12.94,0,0,0,5.34.87,15.75,15.75,0,0,0,5.68-1.36,14.39,14.39,0,0,0,5.09-3.66,15.17,15.17,0,0,0,3.09-5.71l8.54,3a20.7,20.7,0,0,1-4.85,8.61A26.26,26.26,0,0,1,352.25,147.59Z"/><path class="cls-1" d="M384,135.76l-10.14,2.14-9.22-43.78L374.74,92Zm16.85-22.29L379.43,118l-1.8-8.56L399,104.9ZM394.63,87.8l10.13-2.14L414,129.44l-10.13,2.13Z"/><path class="cls-1" d="M444.24,130a27.18,27.18,0,0,1-9.77-2,23.17,23.17,0,0,1-7.67-5,22.13,22.13,0,0,1-4.92-7.48,24.11,24.11,0,0,1,.47-18.4,21.81,21.81,0,0,1,5.33-7.21,23.43,23.43,0,0,1,7.92-4.66,28.29,28.29,0,0,1,19.45.49,23.35,23.35,0,0,1,7.61,5.06,23.33,23.33,0,0,1,4.48,25.9,21.89,21.89,0,0,1-5.33,7.22A23.64,23.64,0,0,1,454,128.5,26.58,26.58,0,0,1,444.24,130Zm.16-8.82a14.58,14.58,0,0,0,5.55-.88,13.3,13.3,0,0,0,7.6-7.29,16.63,16.63,0,0,0,.3-11.63A13.66,13.66,0,0,0,455,96.75a12.91,12.91,0,0,0-4.36-3,14.92,14.92,0,0,0-5.53-1.16,14.6,14.6,0,0,0-5.56.88,13.31,13.31,0,0,0-4.51,2.82,13.55,13.55,0,0,0-3.09,4.47,16.45,16.45,0,0,0-.29,11.59,13.63,13.63,0,0,0,2.82,4.64,12.88,12.88,0,0,0,4.37,3.06A14.88,14.88,0,0,0,444.4,121.16Z"/><path class="cls-1" d="M504.32,129.49l23.42,6.66-2.27,8-33.32-9.48,12.24-43,32.52,9.25-2.28,8L512,102.44Zm4.3-17.92,20.71,5.89-2.2,7.75-20.72-5.89Z"/><path class="cls-1" d="M531.92,146.39,551.17,106l7.73,3.68,10,40.44-3.75-1.79L579,119.26l9.23,4.4L569,164.05l-7.67-3.66-10-40.46,3.75,1.79-13.86,29.07Z"/><path class="cls-1" d="M245.42,608.85l45.53-18,7.31,7.15-17,46-7.77-7.6,15.92-39.67,2.92,2.86L253,616.27Zm13.83.12,7.46-3.7,16.45,16.09-3.49,7.58Z"/><path class="cls-1" d="M288.87,649.27l26.05-36.37,8.41,6L302.2,648.44l18.24,13.06-4.92,6.86Z"/><path class="cls-1" d="M328.77,675.5l16.94-32.11L333,636.72l3.94-7.47,34.48,18.19-3.93,7.46-12.67-6.68-16.93,32.11Z"/><path class="cls-1" d="M353,688.59,385.47,652l9.75,3.08,5.58,48.69-10.36-3.28-3.69-42.59,3.9,1.24-27.57,32.7Zm12.39-6.13,5-6.67,21.94,6.94.31,8.34Z"/><path class="cls-1" d="M453.72,708.67a26.86,26.86,0,0,1-9.6-1.79,22.71,22.71,0,0,1-7.66-4.9,22.36,22.36,0,0,1-5-7.4,24.49,24.49,0,0,1,.18-18.53,22.13,22.13,0,0,1,5.18-7.3,23,23,0,0,1,7.75-4.75,26.83,26.83,0,0,1,9.67-1.6,26.32,26.32,0,0,1,10.49,2.12,20.5,20.5,0,0,1,7.84,6l-6.71,6.07a15.67,15.67,0,0,0-5.07-4,14.53,14.53,0,0,0-6.13-1.37,15.84,15.84,0,0,0-5.76,1,13,13,0,0,0-4.56,2.89,13.49,13.49,0,0,0-3,4.51,16.63,16.63,0,0,0-.12,11.63,13.53,13.53,0,0,0,2.93,4.57,13,13,0,0,0,4.51,3,15.64,15.64,0,0,0,5.74,1.08,14.17,14.17,0,0,0,6.15-1.25,15.08,15.08,0,0,0,5.15-3.94l6.59,6.2a20.8,20.8,0,0,1-7.95,5.87A26.29,26.29,0,0,1,453.72,708.67Z"/><path class="cls-1" d="M478.28,707.8l11.25-47.67,10.05-1.91,28,40.22-10.68,2-23.43-35.75,4-.77-8.78,41.87Zm8-11.28,1.23-8.24L510.13,684l4.22,7.2Z"/><path class="cls-1" d="M537.17,694.62,520.71,653l9.63-3.81L543.7,683l20.86-8.25,3.1,7.84Z"/><path class="cls-1" d="M576.16,677.51l-21.89-39,9-5.07,21.89,39Z"/><path class="cls-1" d="M598.75,664.84l-28-34.92,15.86-12.7a28.33,28.33,0,0,1,11.77-5.86,21.23,21.23,0,0,1,11.64.63,23.84,23.84,0,0,1,14.76,18.43,21.11,21.11,0,0,1-1.92,11.52,28.12,28.12,0,0,1-8.29,10.2Zm2.77-13.1,7.38-5.91a16.74,16.74,0,0,0,5-6.18,12.22,12.22,0,0,0,1-7,14.39,14.39,0,0,0-3.17-6.88,14.24,14.24,0,0,0-6-4.62,12.36,12.36,0,0,0-7-.55,16.75,16.75,0,0,0-7.12,3.53l-7.39,5.92Z"/><path class="cls-1" d="M639.16,631.54l-21.81-43.86,6.51-7.88,47.23,13.05-6.91,8.38L623.3,588.7l2.61-3.15,20,37.81Zm-1-13.79-4.31-7.13,14.64-17.74,7.86,2.84Z"/><path class="cls-1" d="M676.4,584.23l-39.09-21.76,9.89-17.75a28.34,28.34,0,0,1,8.67-9.88,21.26,21.26,0,0,1,11-3.81,23.81,23.81,0,0,1,20.63,11.48,21.09,21.09,0,0,1,2.58,11.39,28.39,28.39,0,0,1-3.82,12.58ZM674,571.05l4.6-8.26a16.75,16.75,0,0,0,2.29-7.61,12.19,12.19,0,0,0-1.72-6.81,14.39,14.39,0,0,0-5.54-5.17,14.25,14.25,0,0,0-7.33-2,12.36,12.36,0,0,0-6.68,2.14,16.78,16.78,0,0,0-5.26,6l-4.6,8.26Z"/><path class="cls-2" d="M112,388.5l.44.32L115,405.53l-2,1.85,0,.37,1.18.2c-.11-.74.08-1.16.58-1.24l.37,0,.12.75-9,4.77-5.41,5.67-3-.3c.62,1,1.18,1.56,1.7,1.58-.11-.7.09-1.09.59-1.17l.1.68q-5.07,8.46-5.09,20.2l-.43-.31-1.13.17c.08.5.49.69,1.24.58l.44.31.11.75q.68,4.35-.45,4.52l-.37.06.43.32.11.75-.57.78-1.18-.2L93,447l0,.37.44.32.37-.06,1-.54q1.56,1.16,4.3,10.93l-.89,1.21-.37.06.06.37.75-.11-.06-.38c1.2-.18,2,.82,2.31,3l-.32.44q.93.08,7.26,8.24.12.83,8.54,4.59l6.45.53L123,477l-.31.44,0,.37-.43-.32-.75.12.18,1.12-.75.12-.06-.38.32-.43-.06-.37-2.23,0q-.54,3.46-3.47,3.91l.12.75c.7-.11,1.12.31,1.27,1.26l.06.38,1.44-.61L118,483l0-.3q1.8-.27,1.68-1l-.11-.75-.54-1,.37-.06,1.45-.61.67-.1,2.65.28,0-.3c1.05.19,1.6.47,1.66.81l-.32.44.06.37.37-.06-.31.44.16,1.05.43.31.06.38-.32.43-.37.06-.87-.63c.08.5-.23.8-.93.91l-.1,1.85.38-.05,1.36-.6c.08.5.62.67,1.62.52l.11.75-.47,1.91-.37.06-1.54-.53L123.35,489l.12.75.75-.12.22,1.43-.64.86-1.36.6-.18-1.13.68-.1-.12-.75-1.09-.14q1.76-3,1.54-4.38c-.55.08-1.24,1.19-2.09,3.31l.43.32-.37.06L120,489.1l-.3,0-.64.86c.11.7.64,1,1.59.83l-.2,1.19.65,1.74-.43-.32-.3.05.06.37c.7-.11,1.3.67,1.81,2.33l-.74.12,0,.37-6.74-.42.09-1.93-2.28-.34-.65.79c-.14-.94-.59-1.36-1.34-1.25l-.38.06a1.28,1.28,0,0,1-1.2,1.65q-6.92-1-17.4-8.83l.14-1.55-.43-.32-.38.06-.63.86-6.66-6.8.21-1.18-.38.06q-1.35.21-6.24-9.09-.51-3.3,2-3.69L78.67,463c.49-.08.8.26.92,1l.32-.44.37-.05.43.31-.17-1.12,1-.16.86.63-1,1.22.44.32.11.75-.43-.32-.3.05,0,2.61,1.85.09-.05-.37a4.32,4.32,0,0,1,4,1.6l-.32.44.43.31.68-.1-1-2.07.3-.05,1.18.2-.06-.37,1.24.57.24-.42.75-.11.12.75.63-.87-.06-.37-.43-.32-.06-.37.32-.44-.43-.31-.38.05c.16,1-.12,1.56-.82,1.67l-.37,0c-1.34-1-2.28-1.49-2.83-1.4l-.64.79-1.43.22c-.51,0-1.11-.55-1.77-1.57a3.38,3.38,0,0,1,1.34-3.2l.44.32-.06-.38,1.61.52.32-.43-.06-.38-.43-.31.45-1.53-.35-.33.24-.42-.68.1-.31.43-.38.06-1.18-.2.06.38-.56.85-.06-.37-2.06,1.08-3.3.51.11.68-1.88.29c-1,.14-1.7-1.61-2.27-5.26l2,.85,1.12-.17-.11-.75L75.74,456l1-1.3-.37.06L75,456.15l-.9-1.39.25-.35-1.54-.53c.42,1.42.79,2.1,1.09,2.06l-.21,1.18q-1.11.18-2.36-7.85-1.35-8.76-.23-8.94l-.43-.32-.06-.37q-.67-11.33,5.62-26.2Q89.18,392,112,388.5ZM75.62,464.65l.3,0,1.55.15,0,.3-1,1.3-.38,0Zm.17-20.21.12.75,1.18.2L77,445Zm.3-14.94.12.75,1.12-.17-.11-.75ZM77.65,449l.17,1.12,1.07-.55-.12-.75-.32.44-.37.05Zm.24-7.87.11.75.87.63.32-.43L79,441ZM78,453.84l.11.68,1.5-.23-.86-.56Zm1.13,14.72-.24.42,0,.37L82.89,471l-.12-.75a2.79,2.79,0,0,0-1.38-2l-.32.43-.38.06ZM83.93,444l.06.37.53,1A6.33,6.33,0,0,1,81.4,447c-.09-.6-.63-.9-1.6-.9l-.32.43.06.37c1.95-.3,3.11.78,3.49,3.22l-.37.06c-.5.08-.7.47-.59,1.17-1.77,1.14-2.62,1.91-2.56,2.31l.3-.05c2.12-.83,3.11-1.75,3-2.75l2.13-.64,0,.3.32-.36L86,450l-.32.35,0,.38.44.32.31-.44.38-.06.79.65-.32.43,1.88-.29-.06-.37-.55-1.07.75-.11.11.75,1-.17-.43-.31-.1-.68.37-.06,1.66.82,1-.54-.43-.31,0-.3.08-1.93-2.17.33-.11-.67-.37.06.1.67c-1.75-.09-2.69-.55-2.83-1.4l0-.38-.32.43-.38.06a4.5,4.5,0,0,1-2.19-2.27Zm-2.51-1.84.11.75,1.13-.17-.06-.38Zm.29,13.77.05.38.88-1.29-.3,0Zm1-2.77-.15,1.48c.5-.07.69-.49.58-1.24l0-.3Zm1.08-41.22.16,1.05a3.18,3.18,0,0,0,1.59-2.09l-.37.06Zm4,47.49-1.18-.2-.38.06.06.37,2.77,1,.37-.05-.65-1.74.63-.87-.37.06ZM87,463.59l-.2,1.18.55,1.07.38-.06.2-1.18,1.18.2-.17-1.13Zm-.11-27.54.11.68,1.05-.17-.11-.67ZM87,480.77l.17,1.13.38-.06,1.07-.55-.87-.63Zm6.21-20.38c.12.75-.07,1.17-.57,1.24l-1.48-.15,0,.37-.43-.31-.37,0L89.25,464l.61,1.44.37-.06a2.45,2.45,0,0,1,1.46-2.52l1.12-.18.06.38-.75.11,1.41,1.7,1.8-.27.32-.44.37-.05,1.65,1.2.37-.06q-2.81-3.25-3.78-3.1L94,460.28Zm-3.92,20.8.16,1,.44.32.37-.06-.06-.37-.53-1Zm1.13-7.62,1.47.08.58-1.17-1.5.23Zm1.87,10.14.85.56.33-.35,0,.29,1.08-.47-.55-1.06-1.13.17Zm0-26.48.54,1,1.2-1.64-.67.1Zm.17,20.46.6,1.37.75-.12.57-.78-.12-.74-.32.43-.35-.33ZM94,434.18c.07.5-.26.81-1,.92l.1.68.38-.06,1.28-1.66Zm.4,22,.43.32.06.37,1.74-.65-.12-.75-.37.06Zm2,29.55.37-.05.64-.87-.06-.37Zm1.21-2.1.79.64.75-.11.15-1.48-.37.05Zm1.58,5.74,0,.38a2.63,2.63,0,0,0,2.83,1.4l1.87-.29,0-.37h-1.92l-1,.46.33-.36-.11-.75Zm.71-5.33.17,1.13.68-.11-.18-1.12Zm.63-5.31.24,1.49.37-.05.14-1.56Zm.43-11.66.06.38,1.12-.18-.1-.67Zm.22,18.31.42.24-.32.43.06.38.87.63,1.06-.55.12.75.3,0c-.08-.5.38-.83,1.38-1l.64-.87-.11-.67-1,.84-2.28-.33Zm2.3-11.94.43.31.06.38-.22,1.1.44.32.67-.1Q104.55,473.54,103.45,473.4Zm1.31,18.44-.2,1.18.38,0,1.38-1-.06-.37-.75.12-.43-.32Zm-.14-22.77.11.75.87.63.56-.85L105,469Zm2,5.67-1.6,2.09,3.14-1.56-.06-.37Zm-.47,13.89-.57,1.24.75-.12.12-1.17Zm0-9.67.22,1.43a2.64,2.64,0,0,0,2.19,2.27l.75-.12-.22-1.42Zm6.14,11,.06.37.43.32,1.13-.17-.06-.38Zm2.54,1.53-.33.35.06.38.68-.11-.25.43.06.37,1.43-.22-.18-1.12Zm1.51-2.16,1,1.76,1.42-.22-.11-.75c-.5.08-.81-.26-.92-1Zm32.57-64.36-4.53-3,.24-.42-.06-.38-5.47-6.6a28.21,28.21,0,0,0-15.28-7c-3,.1-4.47-.15-4.57-.75l-2.81-18.21.63-.87q16.71-2.58,34.35,7.74,11.42,8.74,14,15.41L164.8,412l.11.75.87.63-.35-2.25c.35-.05.82.49,1.4,1.63Zm-32,51.23.43.31.06.38-.75.12.11.74,1-.92.36.33-.06-.38-.79-.64Zm9,16.88q2.17-.34,2.46,1.53l.54,1-.38.06-2.86.83-.06-.38-1.34-1.25-.32.44-.38.05-.11-.75Zm1.62-3.94.37-.06.45,2.93-.33.35.06.38-1.18-.2C126.86,490.29,127.07,489.16,127.52,489.09Zm3.52-11,.67-.11,0,1.85-.37.06-.87-.64-.06-.37Zm-.08,4.46.75-.11.45,2.92-.64.79Zm35.86-9.3q-13.57,18.9-33.52,22l-.11-.75c.7-.11,1-.39.94-.84l-1.42.22-.79-5.1.75-.11-.35-2.25,1.05-.16,1.24.57.38-.06,1.31-1-2.63-2.59-.22-1.43q-.6-3.89,2.25-4.8l-.43-.31.32-.44-.23-1.42-1.75.58-.16-1.05,3.11-1.25.06.38-.25.42.06.37.68-.1q-.24-1.5,5.16-5.33c2.53-2.85,3.73-4.64,3.62-5.39l2.54-.4-.05-.37-.36-.33-.05-.3-.33.36-.74.11-.05-.3c-.06-.4.9-1.41,2.9-3.05l-.17-1.13-.65-1.74.31-.43.68-.11.43.32.32-.43.37-.06a1,1,0,0,1,1.29.87l.3,0-.22-1.43-1.8.28c-.5.08-.81-.26-.93-1l0-2.38,22.73,8A80.5,80.5,0,0,1,166.82,473.27Zm-30.56,7.33.06.38,1.18.2-.12-.75Zm1.3,8.4-.32.43.11.75,1.19.2-.12-.75Zm6.84-93.24.06.38c.5-.08.81.26.92,1l.68-.11-.24-1.5Zm.94,88,0,.3.68-.11.21-1.1-.37.05ZM150,465.44l.55,1.06.38-.05.55-.86-.11-.75-.78-.57C150,464.35,149.85,464.74,150,465.44Zm1.73-3.26.54,1.06.38-.05.63-.87-.11-.75-.86-.56C151.76,461.09,151.57,461.48,151.68,462.18Zm1.81-5.12.87.64.37-.06-.86-.64Zm.59,6.28.06.38.42.24,1.12-.18,0-.3Zm4.43-2.6.44.31-.32.44,1.12-.18-.59-1.36Zm3.6-46.76c.1.7-.44,1.14-1.64,1.33l.06.37,1.5-.23,2.05-1.09-.1-.67-.75.12-.33.35-.37.06Z"/><path class="cls-2" d="M214.73,372.61l.43.32,2.59,16.71-1.94,1.84.05.37,1.19.2c-.12-.74,0-1.15.5-1.22l.37-.06.12.75-8.94,4.76L203.61,402l-3-.3c.67,1,1.26,1.55,1.78,1.57-.11-.7.06-1.08.51-1.15l.11.67q-5.07,8.46-5,20.19l-.43-.31-1.13.17c.08.5.5.69,1.25.58l.43.31.11.75q.67,4.35-.45,4.52l-.37.06.43.32.11.75-.64.79-1.11-.21-.31.43,0,.37.44.32.37-.06,1-.54q1.56,1.15,4.3,10.93l-.89,1.21-.37.06.06.37.67-.1-.06-.38c1.25-.19,2,.81,2.39,3l-.32.44q.85.09,7.26,8.24.14.82,8.54,4.59l6.38.55.16,1-.32.44.06.37-.36-.33-.75.12.18,1.12-.75.12-.06-.37.32-.44-.06-.37-2.23,0q-.61,3.47-3.54,3.92l.12.75c.74-.11,1.19.3,1.34,1.25l.06.38,1.36-.6-.35-.33-.05-.3q1.8-.27,1.68-1l-.11-.75-.54-1,.37-.06,1.37-.6.75-.11,2.65.28,0-.3c1.05.19,1.6.47,1.66.81l-.32.44.06.37.37-.06-.31.44.16,1,.43.31.06.38-.32.43-.37.06-.87-.63c.08.5-.26.8-1,.92l0,1.84.3,0,1.44-.61c.08.5.59.68,1.54.53l.12.75-.4,1.9-.37.06-1.62-.52-1.25,1.35.12.75.75-.12.22,1.43-.64.86-1.44.61-.17-1.13.75-.11-.12-.75-1.09-.14q1.76-3,1.55-4.38c-.56.08-1.25,1.19-2.1,3.31l.43.32-.37.06-1.24-.58-.38.06-.56.85c.11.71.64,1,1.59.83l-.2,1.19.65,1.74-.43-.32-.37.06.05.37c.75-.11,1.38.66,1.9,2.32l-.75.12,0,.37-6.74-.42v-1.92l-2.27-.33-.65.79c-.15-1-.57-1.37-1.27-1.27l-.37.06a1.29,1.29,0,0,1-1.21,1.65q-6.9-1-17.4-8.83l.07-1.54-.36-.33-.38.06-.63.86-6.66-6.79.21-1.19-.38.06q-1.35.21-6.24-9.09-.51-3.3,2-3.69l-.65-1.74c.5-.08.8.26.92,1l.32-.44.3,0,.43.31-.17-1.12,1.12-.17.87.63-1,1.22.44.32.11.75-.43-.32-.38.06,0,2.61L186,452l-.05-.37a4.14,4.14,0,0,1,3.93,1.61l-.32.44.44.31.75-.11-1.09-2.06.38-.06,1.18.2-.06-.37,1.17.59.31-.44.75-.11.12.75.63-.87-.06-.37-.43-.32-.06-.37.32-.44-.43-.31-.38,0c.16,1-.14,1.56-.89,1.68l-.38.06q-1.92-1.54-2.82-1.41l-.57.78-1.5.23c-.52,0-1.08-.55-1.7-1.58a3.38,3.38,0,0,1,1.34-3.2l.44.32-.06-.38,1.54.53.31-.43-.05-.38-.44-.31.53-1.54-.43-.32.32-.43-.75.11-.24.43-.38.05-1.18-.2.06.38-.64.86-.06-.37-2,1.08-3.3.51.1.68-1.79.28c-1,.14-1.71-1.61-2.27-5.26l2,.85,1.12-.17-.11-.75-.66-1.74.88-1.29-.38.06-1.25,1.34-1-1.38.33-.36-1.54-.53c.37,1.43.71,2.12,1,2.07l-.12,1.17c-.75.12-1.54-2.5-2.37-7.84q-1.35-8.78-.23-8.95l-.43-.32-.06-.37q-.75-11.33,5.62-26.2Q192,376.12,214.73,372.61Zm-36.35,76.15.38-.05,1.55.14.05.3-1,1.3-.37.05Zm.25-20.22.12.75,1.18.2-.06-.38Zm.3-14.94.12.75,1.12-.17-.11-.75Zm1.56,19.49.17,1.12,1-.54-.11-.74-.32.43-.38.06Zm.24-7.87.11.75.87.64.32-.44-.18-1.12Zm.12,12.72.11.68,1.42-.22-.85-.56ZM182,452.66l-.32.43.06.38,4,1.6-.12-.75a2.75,2.75,0,0,0-1.46-2l-.32.44-.29,0Zm4.79-24.61.06.37.53,1a6.72,6.72,0,0,1-3.12,1.63c-.09-.6-.63-.9-1.6-.9l-.32.43.06.37c2-.3,3.11.78,3.49,3.22l-.37.06c-.5.08-.7.47-.59,1.17-1.82,1.15-2.69,1.92-2.63,2.32l.37-.06c2.12-.83,3.11-1.75,2.95-2.75l2.13-.64.05.3.32-.36.75-.11-.32.35.05.38.44.32.24-.43.37-.05.87.63-.32.43,1.8-.27-.06-.38-.47-1.08.67-.1.12.75,1.12-.18-.43-.31-.1-.68.37-.06,1.59.83,1.07-.55-.44-.31,0-.3.08-1.93-2.17.33-.11-.67-.37.06.1.67c-1.75-.09-2.69-.55-2.82-1.4l-.06-.38-.32.43-.37.06a4.47,4.47,0,0,1-2.2-2.27Zm-2.51-1.84.11.75,1-.16,0-.38Zm.29,13.77,0,.38.88-1.29-.38.06Zm1-2.77-.16,1.48c.5-.07.69-.49.58-1.24l-.05-.3ZM186.65,396l.16,1.05a3.19,3.19,0,0,0,1.52-2.08l-.3.05Zm4,47.5-1.1-.21-.38.06.06.37,2.77,1,.37-.05-.65-1.74.63-.87-.37.06Zm-.8,4.2-.21,1.18.55,1.07.38-.06.2-1.18,1.11.21-.18-1.13Zm-.19-27.53.1.68,1.13-.17-.11-.68Zm.23,44.71L190,466l.37-.06,1-.54-.79-.64ZM196,444.51c.12.74-.05,1.15-.5,1.22l-1.56-.14.06.38-.43-.32-.3.05-1.17,2.4.61,1.44.38-.06a2.43,2.43,0,0,1,1.45-2.52l1.12-.18.06.38-.75.11,1.41,1.7,1.8-.27.32-.44.37-.05,1.65,1.2.37-.06c-1.87-2.17-3.15-3.19-3.85-3.09l-.29-1.87Zm-3.85,20.78.16,1,.44.32.37-.06-.06-.37-.53-1Zm1.05-7.61,1.55.07.51-1.16-1.42.22Zm1.95,10.13.86.56.32-.35.05.3,1-.47-.55-1.06-1,.16Zm.05-26.48.46,1,1.28-1.65-.75.11Zm.17,20.46.6,1.37.67-.1.65-.79-.12-.75-.32.43-.43-.32Zm1.49-43.51c.07.5-.26.81-1,.92l.1.68.38-.06,1.2-1.65Zm.4,22,.43.32.06.38,1.74-.66-.11-.75-.38.06Zm2,29.55.37-.05.56-.86,0-.37Zm1.13-2.09.87.63.75-.11.15-1.48-.37.05Zm1.66,5.73.06.38a2.61,2.61,0,0,0,2.82,1.4l1.8-.28-.06-.37-1.84,0-1.08.47.33-.36-.12-.75Zm.63-5.32.18,1.13.75-.12-.18-1.12Zm.71-5.32.24,1.49.37,0,.14-1.56Zm.43-11.66.06.38,1.12-.18-.1-.67Zm.22,18.31.42.24-.32.43.06.38.87.63,1-.53.11.75.38-.06c-.08-.5.38-.83,1.38-1l.56-.86-.1-.67-1,.83-2.28-.33Zm2.22-11.93.43.31.06.38-.21,1.11.43.31.75-.11C207.48,458.26,207,457.59,206.21,457.51Zm1.39,18.43-.2,1.18.38-.05,1.31-1-.06-.38-.68.11-.43-.32Zm-.14-22.77.12.75.79.64.63-.86-1.16-.59Zm1.95,5.68-1.52,2.08,3.14-1.56L211,459ZM209,472.74l-.5,1.23.67-.11.21-1.18Zm0-9.68.22,1.43a2.64,2.64,0,0,0,2.19,2.27l.75-.12-.22-1.42ZM215.13,474l.06.38.43.31,1.13-.17-.06-.38Zm2.47,1.54-.33.36.06.37.75-.12-.32.44.06.37,1.5-.23-.18-1.12Zm1.58-2.17,1,1.77,1.49-.23-.11-.75c-.5.08-.81-.26-.92-1Zm.65-101.56q16.78-2.6,34.42,7.73,11.34,8.76,14,15.41l-.58,1.17.11.75.87.63-.35-2.25q1-.15,3.14,5.89l-.75.11-.16-1.05c-.5.08-.64.85-.42,2.29-.45.07-.58.71-.39,1.91l-.32.43-5.1.79-2.88-1.78-.38.06.43.31.28,1.8-1.68,1-1.87.29-.12-.75-.75.12.16,1.05,1.36,1.32-.38.06-.43-.32-.37.06.27,1.8L253,410l.12.75c.11.71,1.63.83,4.58.37.06.4.87.79,2.41,1.16l1-.53.43.31-.06-.37.44.32.37-.06,1.37-.6,1.56.15.57-1.24c-.75.11-1.22-.43-1.4-1.63l-1.37.59-1.18-.2-.12-.75a2.39,2.39,0,0,1,1.41-2.82l1,1.68-.32.43.12.75.37-.05c-.1-.65.67-1.29,2.32-1.9l.43.32.18,1.12c-.66.1-.94.76-.85,2l.75-.12-.12-.75c.75-.12,1.05-.65.91-1.6l.24-.42-.06-.37-.68.1-.05-.37.67-.11.44.32.37-.06,3.39-2.37.93,1-.22,1.11c.7-.11,1.26,1.19,1.68,3.89l-.77,2-.43-.32-.75.12c.1.65-.45,1.11-1.63,1.4l-.32.43.11.68,2.39-1.45-.32.43.1.68,1.8-.28.87.63-.32.44.06.37.85.56-.31.43.66,1.82,0,2.23c-.5.08-.83-.38-1-1.38l-1.42.22.23,1.5-.1,1.85-1.48-.15-1.07.55.55,1.06,1.31-1,.11.74,1.13-.17.32-.43.37-.06.06.38-.21,1.1,1.79-.28q2.25,14.55-7.52,33.25-13.57,18.9-33.52,22l-.11-.75c.7-.11,1-.39.94-.84l-1.42.22-.79-5.1.68-.1-.35-2.25,1.12-.17,1.24.57.3,0,1.39-1-2.63-2.59-.22-1.43q-.6-3.88,2.25-4.8l-.43-.31.32-.43-.22-1.43-1.83.59-.16-1,3.18-1.26.06.38-.32.43.06.37.75-.11q-.24-1.5,5.16-5.33c2.53-2.85,3.73-4.64,3.62-5.39l2.54-.4-.05-.37-.43-.32,0-.3-.33.36-.67.1-.05-.3q-.09-.6,2.83-3l-.18-1.13-.57-1.75L252,440l.75-.12.43.32.32-.43.37-.06a.94.94,0,0,1,1.21.89l.38-.06-.22-1.43-1.8.28c-.5.08-.81-.26-.92-1l0-2.6.37-.06,1.17.59.37-.06-.43-.32c0-1.22.25-1.88.85-2l-.12-.75c-.95.15-1.46,0-1.54-.53l-.34-2.17.25-.42-.05-.3.42.24.75-.12c-.07-.45.27-.73,1-.85v-1.92l-.67.11.11.75-.63.86-1.13.18-.06-.38c-.26-2.72-.22-4.11.13-4.16l.75-.12-.05-.3-1.41-1.7-.28-1.8.75-.11-.06-.38.43.32.38-.06q1-.16.87-1.29l.38-.05.11.75,3.68-.57,1.36-.6,4.6.44c.86-1.36,1.72-2.1,2.57-2.24l.86.56.37,0-.06-.38c-.75.12-1.16-.05-1.23-.5l.38-.06L266.11,415c-.15.68-1.41,1.52-3.76,2.5l-.79-.65-.75.12-.32.43-.37.06-.44-.32-.05-.38.41-2.29L258,415.58l-1.12.17-.43-.31-.32.43-.3.05c-.43-.45-1.94-.47-4.54-.07l-1.78-4.56c.45-.07.6-.6.44-1.6l1.82-.67-4.6-3,.31-.43-.06-.38-5.47-6.6a28.21,28.21,0,0,0-15.28-7c-3,.1-4.47-.15-4.57-.75l-2.81-18.21Zm-.07,88.43.36.33.06.37-.68.11.12.74.93-.91.43.32,0-.37-.87-.64Zm8.9,16.89c1.45-.23,2.27.29,2.47,1.54l.53,1-.37.05-2.86.83-.06-.37-1.27-1.27-.32.44-.37.06-.12-.75Zm1.62-3.94.38-.05.45,2.92-.33.36.06.37-1.11-.21C229.7,474.39,229.88,473.26,230.28,473.2Zm3.52-11,.75-.11-.09,1.85-.38.06-.79-.65-.06-.37Zm0,4.45.67-.1.46,2.92-.57.78Zm5.3-2,.06.38,1.1.21-.11-.75Zm1.3,8.4-.32.43.12.75,1.1.21-.11-.75Zm6.84-93.23.06.37c.45-.07.73.27.85,1l.75-.12-.24-1.49Zm.86,88,.05.3.75-.12.21-1.1-.37.05Zm3.33-50.94,2.67.36-.32.43.11.75.44.31,0,.3-.31.44a2.29,2.29,0,0,1-2.95-2.16Zm1.36,32.64.55,1.06.3,0,.64-.87-.12-.75-.85-.56C252.86,448.45,252.69,448.84,252.79,449.54Zm2.64-26.12c.11.7-.08,1.09-.58,1.16l-.36-.32-.38.05.06.38c.09.6,1.49.89,4.21.88.1.7.41,1,.91.94l.31-.44,0-.3c-.75.12-1.2-.32-1.36-1.32l-.31.43-.38.06c-.65.1-1.09-.44-1.33-1.64Zm-.91,22.86.54,1.07.38-.06.56-.86-.12-.75-.78-.57C254.6,445.19,254.41,445.58,254.52,446.28Zm.57-13.14.06.38.55,1.06,1.05-.16-.91-1.39Zm1.24,8,.87.64.3-.05-.79-.65Zm.59,6.28.06.38.42.24,1.05-.16-.05-.3Zm.8-11.71-.16,1.48,1.13-.17,1.32-.9-.43-.31-.06-.38-.32.43-.67.11-.44-.32Zm2-23.11.17,1.13.38-.06.2-1.18Zm1.39,14-.43-.31-.37,0-.25.43.12.75.24-.43,1.13-.17,1.24.58-.29-1.88-.38.06Zm-.36-16.75.06.38-.56.85-.06-.37Zm-.21,18,.06.38.53,1-.31.43,1.12-.17-.06-.38-1-1.3Zm.78,17,.44.31-.32.44,1.12-.18-.59-1.36Zm3.6-46.76c.11.7-.44,1.14-1.64,1.33l.06.37,1.42-.22,2.06-1.08-.1-.68-.68.11-.33.35-.37.06Zm-.55,30.25.55,1.06,1.13-.17-.12-.75Zm2.32-13.79.44.31,0,.38.32-.43,1.5-.24c.45-.07.75.4.91,1.4l.43.31.37,0,.32-.44-.71-2.11-1.8.28Zm.91,10.29.05.38,1.8-.28-.85-.56Zm4.28-8.49-.08,1.93,1.11.22,1.06-.55.44.32,0,.3,1-.47-.23-1.5-.3.05c.12.75-.07,1.16-.57,1.24-1,.16-1.6-.39-1.79-1.64Zm2.69,10.41-.2,1.18,1.12-.17-.17-1.13Z"/><path class="cls-2" d="M273,363.45,296,359.9l.87.63,1.35,8.77-.62.94-.75.12c-.1-.65-.87-1.32-2.31-2l-.11-.75-.38.06-.32.43-.37.06,2.86,3.09-1.72,1.8.37-.06,3.16-2.41.43.32,7.39,47.74-1.88.29L301.8,418a1.37,1.37,0,0,1-1.26,1.8c.23,1.5.1,2.29-.4,2.37l-1.95.3-1.24-.58-.56,1.32.43.31,2.25-.34.11.75a3.74,3.74,0,0,1,3.37,1.39l.57-1.24c-.75.12-1.16-.07-1.24-.57l-.36-2.32,2.33-.36.86.63.3,1.95q-1.2.18-1.08.93a3.24,3.24,0,0,1,3,1.54l.71,4.57-2.24,3.41,2-.3-.23-1.5.75-.11,2.6,16.79c-.34,1.12-.89,1.74-1.64,1.86l.87.63,1.07-.54,1.64,10.64-.75.12c-.19-1.25-.54-1.84-1-1.76l-2.49-.77.05.38c.06.4.9.65,2.5.76l.68,1.89.06.38-1,1.3-.82.12-2.55-1.6.07.45,2.22,2-.2,1.18.38-.05c1.54-.24,2.24-.86,2.09-1.86l1.12-.18.48,3.08-.64.86-2.32.36-1.24-.57-.64.86-2.69.42c-.5.08-.81-.26-.93-1l-2.32.36c.11.75-.08,1.16-.58,1.24l-1.87.29L297.41,468l-.38.06.29,1.88-4.57.7-.18-1.12-2.32.36.06.37.82-.12.12.74-1.57.25-.87-.64-.06-.37.57-1.32L289,467l-.75.12-.54-3.45,1.15-2.48c-.12-.8-.55-1.14-1.3-1l-.44-.31-.41-2.7.63-.87,1.57-.24,1.24.57,1.13-.17-.44-.32-2-.46-1.18-2.12-.75.12.29,1.87-.75.12-2.24-14.54.63-.87.37-.06,2.44.39.07.45,1.81-.74,3.07-.47c-.08-.5-.62-.67-1.62-.52l-.11-.75-2.7.42-.86-.64.13-1.63q-1.5.24-2.15-4l-.38.52-1.12.17-.88-.71-.47-3,1.13-.17-.45-.39-.05-.38.2-1.18-1.42-1.7-9.51-61.54Zm3.32,14,.11.75.94.62.32-.43-.06-.38-.86-.63Zm3.75-13.94-.56,1.32.37-.06,1.06-.62Zm2.09,59.16,2.18,1.2,1.12-.17C285.38,423,284.28,422.7,282.18,422.66Zm1.45,11.9a2,2,0,0,1,2.3,1.95c-1,.71-1.39,1.44-1.27,2.19l-.75.12-.54-3.45.32-.43Zm.34-15.71.29,1.88.75-.12-.29-1.87Zm.33,10.08.07.45a3.1,3.1,0,0,1,2.55,1.14l.38,0,.95-1.3-1.43-1.78-.37.06A3.72,3.72,0,0,1,284.3,428.93Zm.52-62.63.12.75.43.32.75-.12-.06-.37-.86-.63Zm.95,6.15.06.37,4.86,1.17.44.32.37-.06-.66-1.82-.12-.75.56-1.31-3,.46Zm2.61,70c.15,1,0,1.54-.52,1.62l-1.26-.19-.31.43.18,1.2c.8-.12,1.26.19,1.38.94l.37-.06a1.7,1.7,0,0,1,1.57-2.23l1.2-.19A4.06,4.06,0,0,0,288.38,442.42Zm2.27-15.62,0,2.38,1.3.95.11.75-1.81.67-1.13.17-.52,2.08.06.37.94.62.37-.05,1.82-.67.66,1.82.38-.06-.35-2.25c.5-.08.67-.61.52-1.61l.38-.52.37-.06,1.57.22-.07-.45c-.07-.5-.93-.88-2.55-1.14L292,428.2l-.07-.45.83-.13-.06-.37c-.8.12-1.24-.06-1.32-.56ZM288.83,420l.13.83.86.63-.24-1.57Zm2.61,2,.23,1.5,1.2-.19-.06-.37-.55-1.07Zm.15,31.29,1.2-.19.63-.94-1.13.17Zm.29-79.1.95.7.75-.12-.13-.82Zm.22,72,.75-.12.64-.86-.75.11Zm1.6-4.55.06.38a1.36,1.36,0,0,1,1.8,1.25l.75-.11a3.69,3.69,0,0,1,1.42-3.29Q293.57,440.85,293.7,441.6Zm0,25.4,1,1,1.07-.55-.61-1.44Zm.13-39.92.05.37,4.24,2.11-.23-1.5a4.11,4.11,0,0,1-2.48-3.15c-.4.06-.68.75-.83,2Zm.13,33.67.12.75.38-.06.63-.87Zm1.09-10.38.11.75c-.75.12-1.08.43-1,.92l1.13-.17.2-1.18-.06-.38Zm-.69-12.4,1.12-.18.32-.43.37-.06-.55-1.06Zm1.35-19,.88.7c2.14-1.09,3.29-2.06,3.47-2.91l-.44-.32A5.88,5.88,0,0,1,295.72,419Zm1.1,45.26.86.64,1.2-.19-.12-.75Zm.1-4.31.05.37.83-.12c-.09-.55.25-.89,1-1l-.12-.75Zm1.27-22.53.06.37c.06.4,1,.92,2.92,1.55l-.12-.83a1,1,0,0,1-1.3-1l-.44-.32Zm2.35-4.66-1.18-.21.23,1.5,1.12-.17c-.15-1,.63-1.89,2.35-2.67l-.11-.74-.38.05Zm-.06-28.16L301,408l.82-.13.2-1.18-1.18-2.2Zm.45,53.5.05.37,1,1.08.12.75c.12.75-.35,1.2-1.4,1.36l.06.38,2-.3.08-1.93C302.12,458.64,301.49,458.08,300.93,458.06Zm0-17.58.06.37,1.57-.24-.5-.31-.06-.37Zm1.57,5.2.06.38L303,446c-.06-1,.89-1.67,2.84-2l-.23-1.5C303.4,443.63,302.39,444.68,302.54,445.68Zm0-10.51.12.75c.93-.55,1.38-1,1.32-1.36Zm.94-21.71-.45,2.06.06.38,1.44-.61-.67-1.89Zm.5,13.66.12.75,2.32-.36-.17-1.12Zm1.95-7.75.59,3.83-.75.11-.11-.75-.79-2.64.31-.43Zm-.36,45.8.11.75,1.2-.18-.11-.75Zm1.95-20.64-.21,1.65,1.2-.19.13-1.63Zm54.18-4.46.18,1.12-.38.06-.31.43.43.32a1.34,1.34,0,0,0,1.73,1.27c-.12-.75.08-1.16.57-1.24l1.35,3.7-1.5.24.11.75c1-.16,1.56.14,1.68.89l2.62,1.59.48,3.07-1.13.18.23,1.49.93,1,.36,2.33-.32.43c-1.05.16-1.52.62-1.4,1.37l-4.95.76-.86-.63-.06-.38,1.5-.23-.59-3.82c1.05-.16,1.51-.62,1.4-1.37l-1.13.18-.12-.83c1.22-.34,1.79-.81,1.69-1.41l-.11-.75a4.49,4.49,0,0,1-1.54-2.53l.08-1.93-1.69-.51a3.42,3.42,0,0,0-1.58,2.17l.93,1.08.06.38-.32.43.44.32,0,.37a3.67,3.67,0,0,0-2.07,1.47l.06.38.43.31.36,2.33-.32.43,1.13-.17.4,2.62-.62.94c-1.55.24-2.42-.29-2.62-1.59l-2.25.35.11.75-1.95.3-.88,1.75c.75-.12,1.17.07,1.24.57l.06.38-5.32.82-.87-.63-.05-.38.31-.43-.37.06c-.12-.8.19-1.26.94-1.38l-.18-1.12-2.79-.72c-.53.59-1.87,1.19-4,1.77l1.49,2.15-1.72,1.8-6.07.94-.18-1.12-1.12.17-.32.44-.06-.38-.74.12.05.37,1.56.14.06.38L319,466.55l-.94-.62-.76-4.95.64-1.32-1-1-.06-.38.32-.43-.44-.32-.76-4.94.37-.06,1.75.88.38-.06-2.86-3.09-.46-3,.69-1,5-.76.18,1.2-.31.43.86.63q3.39-2.9,5-3.14l6.44-1c0,1.85-.5,2.84-1.45,3l.11.75,2.84-2-.43-.31a2.09,2.09,0,0,1,1.26-1.81l1.62.6,1-1,13-2,1.82,1.33.37-.06.32-.43-.06-.37-.43-.32-.07-.45,3.44-.53c.5-.08.82.28.94,1.08l1.31-1.43,2.33-.36Zm-42,13.48.11.75.44.32-.31.51L318,455l-.13,1.63.43.32.32-.44,1.55.15-.08,1.93.18,1.2c.75-.12,1.17.08,1.24.57l.75-.11-1.85-2.09a8.44,8.44,0,0,0,.53-4l-.87-.63Zm4.71-2.26-.31.43.72,2.19.37-.05.09-1.94-.12-.75Zm4.53,4-2,1.85.11.75.44.31,1.06-.54c-.15-1,0-1.54.52-1.62l.32-.43.31-.44Zm3.77-1-.64.86.06.38.75-.12.32-.43-.12-.75Zm1.67.89.36,2.32.87.64.45-.07-.76-1.88-.17-1.13Zm1.42-3.75-1.38-.94.24,1.5,1.63.13-.12-.75Zm-.08-5.44-.2,1.18.88.71-.3-1.95Zm.88,5.7-.19,1.25.06.38.38-.06L337,452l-.06-.37Zm.29-3.12.06.38c.5-.08.81.26.92,1l.38-.06-.18-1.13-.43-.31Zm1.83,4.4.29,1.88-1.27,1.73,1,1.45-1.1,2.86.06.38a5.11,5.11,0,0,0,2.65-2.72l-.88-5.69Zm2.12-6.62.88.71.62-.94Zm2.36-2.67-.32.44.06.37L344,444l-.06-.37Zm.56,6.13-.71.88c.65-.1,1.15.49,1.5,1.76l-1.14.56.43.32.06.38-.32.43.06.37c1.46-.84,2.16-1.45,2.09-1.86l-1.12.18-.06-.38.32-.43-.36-2.32Zm3.35,9.23a4.44,4.44,0,0,0-1,3.31l-.82.13-2-.46-.12-.75.38-.06a3.28,3.28,0,0,1,2.71-2.8Zm7.16-9.24-1.64-.21-2.44,1.61-.75.11L348,450l.75,1.88c.19,1.25-.24,1.95-1.29,2.11l.06.38.43.31,3-3.53,1.5-.23.94.62,1.95-2.29-.06-.38Zm-6.5-6.82.23,1.5.75-.12-.12-.75Zm11.09,16.63-.63.86-3.38.52-.06-.37,1.27-1.73,1.13-.18ZM367.52,445l-1.5.23-.23-1.5.62-.94.75-.11Z"/><path class="cls-2" d="M407.52,342.81l.43.31,2.58,16.72-1.94,1.83.06.38,1.18.2c-.11-.75.05-1.16.5-1.23l.38-.06.11.75-8.93,4.76-5.49,5.68-3-.29c.67,1,1.26,1.54,1.78,1.56-.11-.7.06-1.08.51-1.15l.1.67q-5.06,8.46-5,20.2l-.43-.32-1.13.17c.08.5.49.7,1.24.58l.43.32.12.75q.67,4.33-.45,4.52l-.38,0,.44.32.11.75-.64.79-1.11-.21-.32.43.06.38.43.31.38-.05,1-.54q1.56,1.14,4.3,10.92l-.89,1.21-.37.06.05.38.68-.11-.06-.37c1.25-.19,2.05.81,2.39,3l-.32.43q.86.09,7.26,8.24.12.82,8.54,4.59l6.37.55.17,1.05-.32.43.06.38-.36-.33-.75.11.17,1.13-.74.11-.06-.37.31-.43-.05-.38-2.24,0q-.6,3.48-3.53,3.93l.11.75c.75-.12,1.2.3,1.35,1.25l.06.37,1.36-.59-.36-.33,0-.3c1.2-.19,1.76-.53,1.68-1l-.12-.75-.53-1,.37-.06,1.37-.59.75-.12,2.65.28-.05-.3c1.06.2,1.61.47,1.67.82l-.32.43.06.38.37-.06-.32.43.17,1,.43.32.06.37-.32.44-.37,0-.87-.63c.08.5-.26.81-1,.92l0,1.85.3-.05,1.44-.61c.08.51.59.68,1.54.53l.12.75-.4,1.91-.37.06-1.62-.52L419,443.26l.12.75.75-.11.22,1.42-.64.87-1.44.6-.17-1.12.75-.12-.12-.75-1.1-.14c1.18-2,1.69-3.48,1.55-4.38-.55.09-1.24,1.19-2.09,3.32l.43.31-.37.06-1.24-.57-.38.06-.56.85c.11.7.64,1,1.59.83l-.2,1.18.65,1.74-.43-.32-.38.06.06.38q1.13-.18,1.89,2.31l-.75.12.06.37-6.74-.41v-1.92l-2.28-.34-.64.79c-.15-1-.57-1.37-1.27-1.26l-.38.06a1.27,1.27,0,0,1-1.2,1.64q-6.92-1-17.41-8.82l.07-1.55-.36-.32-.37,0-.63.87-6.66-6.8.2-1.18-.37,0q-1.35.21-6.24-9.08-.51-3.3,2-3.7l-.66-1.74c.5-.07.81.26.93,1l.31-.43.3,0,.44.32-.18-1.13,1.13-.17.86.63-1,1.23.43.31.12.75-.43-.31-.38,0,0,2.61,1.93.09-.06-.38a4.15,4.15,0,0,1,3.94,1.62l-.32.43.43.32.75-.12-1.08-2.05.37-.06,1.19.2-.06-.38,1.16.59.32-.43.75-.12.12.75.63-.86-.06-.38-.43-.32-.06-.37.32-.43-.44-.32-.37.06c.15,1-.14,1.56-.89,1.67l-.38.06q-1.92-1.54-2.82-1.41l-.57.78-1.5.23c-.52,0-1.09-.54-1.71-1.57a3.43,3.43,0,0,1,1.35-3.21l.43.32-.06-.37,1.55.53.31-.44-.06-.37-.43-.32.53-1.54-.43-.32.32-.43-.75.12-.25.42-.37.06L379,414l.06.37-.64.87-.06-.38-2.05,1.09-3.3.51.1.67-1.8.28c-.95.15-1.7-1.6-2.27-5.25l2,.84,1.12-.17-.12-.75-.65-1.74.88-1.29-.38.06-1.25,1.35-1-1.39.33-.36-1.54-.52c.37,1.42.71,2.11,1,2.06l-.13,1.18c-.75.11-1.53-2.5-2.36-7.85-.91-5.85-1-8.83-.23-8.94l-.44-.32,0-.38q-.76-11.31,5.62-26.19Q384.81,346.32,407.52,342.81ZM371.17,419l.37-.06,1.56.14,0,.3-.95,1.3-.38.06Zm.25-20.23.12.75,1.18.2-.06-.37Zm.3-14.93.12.75,1.12-.18-.12-.75Zm1.55,19.48.18,1.13,1-.54-.12-.75-.31.43-.38.06Zm.25-7.86.11.75.87.63.31-.43-.17-1.13Zm.12,12.72.11.67,1.42-.22-.86-.56Zm1.12,14.71-.31.44.06.37,4,1.61-.11-.75a2.73,2.73,0,0,0-1.46-2l-.32.43-.3.05Zm4.8-24.61.05.38.54,1a6.68,6.68,0,0,1-3.12,1.63c-.1-.6-.63-.9-1.6-.9l-.32.43.06.38q2.93-.45,3.49,3.22l-.37.06c-.5.07-.7.46-.59,1.16-1.82,1.15-2.7,1.93-2.64,2.33l.38-.06c2.12-.84,3.11-1.76,2.95-2.76l2.13-.64,0,.3.33-.35.75-.12-.33.36.06.37.43.32.25-.42.37-.06.87.63-.32.44,1.8-.28-.06-.38-.47-1.07.67-.11.12.75,1.12-.17-.43-.32-.11-.67.38-.06,1.59.83,1.06-.55-.43-.32,0-.3.09-1.93-2.18.34L386,401l-.37.06.1.67c-1.75-.08-2.69-.55-2.83-1.4l-.05-.38-.32.44-.38.06a4.52,4.52,0,0,1-2.19-2.28Zm-2.51-1.84.11.75,1-.16-.06-.37Zm.28,13.78.06.37.88-1.29-.38.06Zm1-2.77-.15,1.48c.5-.08.69-.49.58-1.24l-.05-.3Zm1.07-41.23.17,1.05a3.14,3.14,0,0,0,1.52-2.08l-.3.05Zm4,47.51-1.1-.21-.38,0,.06.38,2.77,1,.37-.06-.65-1.74.63-.87-.37.06Zm-.81,4.19-.2,1.18.55,1.07.37-.06.21-1.18,1.1.21-.17-1.12Zm-.19-27.52.11.67,1.12-.17-.1-.68Zm.24,44.71.17,1.12.38-.06,1-.53-.79-.65Zm6.14-20.37c.11.75,0,1.16-.5,1.23l-1.56-.15.06.38-.44-.32-.29.05-1.17,2.41.61,1.44.37-.06a2.48,2.48,0,0,1,1.45-2.53l1.13-.17.06.37-.75.12,1.41,1.7,1.8-.28.32-.43.37-.06,1.65,1.2.37-.05q-2.81-3.26-3.85-3.09l-.29-1.88Zm-3.85,20.78.16,1,.43.32.38-.06-.06-.38-.54-1Zm1.05-7.61,1.54.07.52-1.15-1.43.22ZM387.93,438l.85.56.33-.36.05.3,1-.46-.55-1.07-1.05.16Zm.05-26.49.46,1,1.28-1.66L389,411Zm.17,20.47.59,1.36.68-.1.64-.79-.11-.75-.32.43-.43-.31Zm1.48-43.52c.08.5-.25.81-1,.93l.1.67.38-.06,1.2-1.64Zm.41,22,.43.31.06.38,1.74-.65-.12-.75-.37,0ZM392,440l.37-.06.56-.85-.06-.38Zm1.13-2.09.87.63.75-.12.15-1.48-.37.06Zm1.66,5.73,0,.37a2.65,2.65,0,0,0,2.83,1.41l1.8-.28-.06-.38-1.85,0-1.07.47.33-.35-.12-.75Zm.63-5.32.17,1.12.75-.11-.17-1.13Zm.71-5.33.23,1.5.38-.06.14-1.56Zm.43-11.65.05.37,1.13-.17-.11-.68Zm.22,18.3.42.25-.32.43.06.37.86.64,1-.54.11.75.38-.06c-.08-.5.38-.83,1.38-1l.56-.85-.11-.68-.94.84-2.28-.34ZM399,427.7l.43.32.06.37-.21,1.11.43.32.75-.12C400.27,428.45,399.78,427.79,399,427.7Zm1.39,18.44-.2,1.18.38-.06,1.3-1-.05-.37-.68.1-.43-.32Zm-.14-22.78.11.75.79.65.64-.87-1.17-.58Zm1.95,5.69-1.52,2.08,3.14-1.56-.06-.38Zm-.46,13.88-.5,1.23.67-.1.2-1.18Zm0-9.67.22,1.42a2.62,2.62,0,0,0,2.19,2.27l.75-.11-.22-1.43Zm6.14,10.94.06.38.43.32,1.13-.18-.06-.37Zm2.46,1.54-.32.36.05.37.75-.11-.31.43.05.38,1.5-.24-.17-1.12Zm1.59-2.16,1,1.77,1.5-.23-.11-.75c-.5.07-.81-.26-.93-1ZM412.61,342q16.8-2.59,34.43,7.72,11.32,8.77,14,15.42l-.58,1.16.11.75.87.64-.35-2.25q1-.15,3.13,5.88l-.74.12-.17-1c-.5.08-.64.84-.41,2.29-.45.07-.58.7-.4,1.9l-.31.43-5.1.79L454.17,374l-.37.06.43.32.28,1.8-1.68,1-1.88.29-.11-.75-.75.12.16,1.05,1.36,1.33-.38.05-.43-.31-.38.05.28,1.8-4.94-.69.12.75q.15,1.05,4.58.36c.06.41.86.79,2.41,1.17l1-.54.43.32-.06-.38.44.32.37-.06,1.37-.59,1.55.14.58-1.24c-.75.12-1.22-.43-1.4-1.63l-1.37.6-1.18-.2-.12-.75a2.41,2.41,0,0,1,1.41-2.83l1,1.69-.31.43.11.75.38-.06c-.1-.65.67-1.28,2.32-1.89l.43.31L460,378c-.65.1-.93.76-.84,2l.75-.12-.12-.74c.75-.12,1-.65.9-1.6l.24-.42-.05-.38-.68.11-.06-.38.68-.1.43.31.38-.05,3.39-2.37.92,1-.21,1.1c.7-.1,1.26,1.19,1.68,3.89l-.77,2-.44-.32-.75.12c.11.65-.44,1.12-1.62,1.4l-.32.43.11.68L466,383l-.31.43.1.67,1.8-.27.87.63-.32.43.06.38.85.56-.32.43.67,1.81,0,2.24c-.5.07-.83-.39-1-1.39l-1.43.22.23,1.5-.09,1.86-1.48-.16-1.07.55.55,1.07,1.31-1,.11.75,1.13-.18.31-.43.38-.06.06.38-.22,1.11,1.8-.28q2.25,14.54-7.52,33.24-13.57,18.92-33.52,22l-.11-.75c.7-.11,1-.38.94-.83l-1.42.22-.79-5.1.67-.11-.34-2.24,1.12-.18,1.24.58.3-.05,1.38-1-2.62-2.59-.22-1.42q-.6-3.9,2.25-4.8l-.43-.32.31-.43-.22-1.43-1.82.59-.17-1,3.19-1.26.05.37-.31.43.05.38.75-.12q-.23-1.5,5.17-5.32c2.52-2.85,3.73-4.65,3.61-5.4l2.55-.39L444,417l-.44-.31,0-.3-.33.35-.68.11,0-.3q-.09-.6,2.83-3l-.18-1.12-.57-1.76.24-.42.75-.11.43.31.32-.43.37-.06a.94.94,0,0,1,1.21.89l.38-.06L448,409.3l-1.8.28c-.5.07-.81-.26-.93-1l0-2.61.38-.06,1.16.59.38-.06-.43-.31c0-1.23.24-1.88.84-2l-.11-.75c-.95.15-1.47,0-1.54-.53l-.34-2.17.24-.42,0-.3.42.24.75-.11c-.07-.45.27-.74,1-.85v-1.92l-.68.1.12.75-.64.87-1.12.17-.06-.37c-.26-2.73-.22-4.11.13-4.17l.75-.11,0-.3-1.42-1.7-.27-1.8.75-.12-.06-.37.43.31.38,0q1.05-.17.87-1.29l.38-.06.11.75,3.68-.57,1.36-.59,4.6.44c.86-1.36,1.72-2.11,2.57-2.24l.85.56.38-.06-.06-.37q-1.12.17-1.23-.51l.38-.05-1.29-1.34q-.22,1-3.75,2.5l-.79-.65-.75.12-.32.43-.38.06-.43-.32-.06-.37.42-2.29-2.06,1.08-1.13.18-.43-.32-.32.43-.29.05c-.43-.44-1.94-.47-4.54-.06l-1.78-4.57c.45-.06.6-.6.44-1.6l1.82-.66-4.61-3,.32-.43-.06-.37-5.47-6.6a28.14,28.14,0,0,0-15.28-7c-2.95.1-4.48-.15-4.57-.75l-2.81-18.22Zm-.06,88.42.35.33.06.38-.67.1.11.75.94-.91.43.31-.06-.37-.86-.63Zm8.9,16.89c1.45-.22,2.27.29,2.47,1.54l.53,1-.37.06-2.87.82-.06-.37-1.27-1.26-.31.43-.38.06-.11-.75Zm1.62-3.93.37-.06.46,2.92-.33.36.06.38-1.11-.22C422.49,444.59,422.67,443.46,423.07,443.4Zm3.52-11,.75-.12-.1,1.86-.37,0-.79-.64-.06-.38Zm0,4.45.67-.11.45,2.93-.57.77Zm5.3-2,.05.37,1.11.21-.12-.75Zm1.29,8.39-.31.43.11.75,1.11.22-.12-.75ZM440,350.06l.06.37c.45-.07.73.27.85,1l.74-.11-.23-1.5Zm.86,88,.05.3.75-.11.21-1.11-.38.06Zm3.33-50.94,2.66.36-.31.43.11.75.44.32,0,.3-.31.43a2.29,2.29,0,0,1-3-2.15Zm1.36,32.64.55,1.07.3-.05.63-.86-.11-.75-.86-.56C445.64,418.65,445.47,419,445.58,419.73Zm2.64-26.12c.11.7-.09,1.09-.59,1.17l-.35-.33-.38.06.06.37c.09.6,1.49.9,4.2.89.11.7.42,1,.92.93l.31-.43,0-.3c-.75.11-1.21-.33-1.36-1.33l-.32.44-.37.05c-.65.1-1.1-.44-1.33-1.63Zm-.92,22.86.55,1.07.38-.06.55-.85-.11-.75-.78-.57C447.39,415.38,447.2,415.77,447.3,416.47Zm.58-13.13.06.37.55,1.07,1.05-.16-.91-1.4Zm1.24,8,.87.63.3-.05-.79-.64Zm.59,6.28.06.37.42.24,1.05-.16-.05-.3Zm.8-11.72-.16,1.49,1.13-.18,1.32-.89-.44-.32-.05-.37-.32.43-.68.1-.43-.31Zm2-23.1.17,1.12.38-.06.2-1.18Zm1.39,14-.43-.32-.38.06-.24.42.12.75.24-.42,1.12-.18,1.24.58-.28-1.87-.38.05Zm-.36-16.75.06.37-.56.86-.06-.38Zm-.21,18,.05.37.54,1-.32.44,1.13-.18-.06-.37-1-1.31Zm.78,17,.43.32-.31.43,1.12-.17-.59-1.37Zm3.59-46.76c.11.7-.43,1.15-1.63,1.33l0,.38,1.43-.22,2.06-1.09-.11-.67-.67.1-.33.36-.37.06Zm-.54,30.25.55,1.07,1.12-.18-.11-.75Zm2.32-13.79.43.32.06.37.32-.43,1.5-.23c.45-.07.75.39.9,1.39l.44.32.37-.06.32-.43-.71-2.12-1.8.28Zm.9,10.3.06.37,1.8-.27-.85-.56Zm4.29-8.49-.08,1.93,1.1.21,1.07-.55.43.32,0,.3,1-.46-.23-1.5-.3,0c.12.75-.08,1.17-.57,1.25-1,.15-1.6-.4-1.79-1.65Zm2.69,10.4-.21,1.19,1.13-.18-.17-1.12Z"/><path class="cls-2" d="M465.46,333.85l22.86-3.54a157.21,157.21,0,0,1,14,16.95l-.83.13a37.9,37.9,0,0,1,8.37,8.45l.12.75-.57,1.32c1-.06,1.58.24,1.68.89l-.32.43a3.49,3.49,0,0,1,4,3.29l-.63.87L510,364l.11.75-2.69.41.11.75-2.25.35-4.38,1.91-.06-.38-3,1.23-.87-.64-1.12.18c.12.75-.1,1.16-.65,1.25l-.37.06L491,365.05l-.06-.38.75-.11c.11.75.92,1,2.42.78l1.46-1,.86.64,1.82-.67-.12-.75a4.22,4.22,0,0,1-3.75-1.41l-1.93-.09-.11-.75-1.13.17.12.75-1.58.25c-.75.11-1.24-.58-1.47-2.08q-1.65.25-6.94-7.14Q467.05,336.75,465.46,333.85Zm.77,7.48.75-.12,16.39,20.11c-.5.08-.7.49-.58,1.24-1.55.24-2.19,1.23-1.92,3l-3.43.15.06.37q.13.9-3.9,2.6l-.63.87-.45.06L470.73,368l-.37.06Zm12.2,25.82c1.23.32,1.93.72,2.11,1.21l-.45,2.06q.75-.12.57-1.32l2.32-.35,1-.93.37-.06.87.64-.57,1.31.06.38.75-.12c1.22-.75,1.78-1.37,1.71-1.87l1.12-.18a4.65,4.65,0,0,1,2.84,3.48l.06.37q-4.14,1-4.77,1.89l-4.2.65c.08.55-.5.92-1.75,1.12l-1,1.29-2-.07-1.12.17-2.47,1.92-1.12.17-.87-.63-.53-3.45.32-.43-.43-.32-.29-1.87.37-.06.87.63-.32.44.06.37,2.75,0c-.07-.5.74-1,2.45-1.53l-.67-1.89,2.32-.36-.06-.38-1-1.75.38-.06Zm11.43,8.36,1.5-.23.31-.43.45-.07q.92,3.39,2.79,3.1l.31-.44,1.1,2.14.42,2.69-1.5.24.11.75,1.5-.24,8.58,54.47-20.31,3.15-1.64-.14-1.44.61-.43-.32-9-57.94a3.2,3.2,0,0,1,2.71-2.8,3.87,3.87,0,0,0,2.51-1.15l.75-.12c2.46.7,3.73,1.29,3.81,1.79l1.07-.55c1.08.09,1.74.89,2,2.38l.37,0,.63-.87-.11-.75c-1.15-.79-1.77-1.49-1.86-2.09l-1.95.3-1.93-.08-.12-.75.95-1.3,5-.77.12.75,1.57-.24-.11-.75-.51-.31-.06-.37,2.15-1.48ZM477,385.33a4.79,4.79,0,0,1,2,2.77l.38-.06c.79-1.14,1.49-1.76,2.09-1.86l-.12-.74c-.75.11-1.16-.08-1.24-.58Zm1.88,12.15.12.82.87.64.37-.06-.43-.32-.06-.37.31-.51-.06-.38Zm2.61-61,.06.38.94.62-.06-.38Zm.41,52.82-.31.43.06.38,1.49-.24,0-.37Zm5.86-4.82q.27,1.72-3.53,2.46l.3,2,.37-.06a4.34,4.34,0,0,1,2.83-2c-.15-1,.14-1.56.89-1.68l-.11-.75Zm-2.2-19.16.83-.12,1.36,1.32-1,.92-.83.13-1.3-.95Zm1,26.33,1.5-.23.64-.87-.06-.38C487.13,390.62,486.44,391.11,486.51,391.61Zm2.42-4.21.12.75,2.32-.36-.11-.75Zm.47-9.9-.08,2,.18,1.12.37-.06c.71-.36,1-1.17.78-2.42Zm3.42-3.21.75-.12a2.54,2.54,0,0,1,1.9,2.39l-.37.06A2.68,2.68,0,0,1,492.82,374.29Zm1.76,11.39.06.37.87.71.38-.06-.56-1.14Zm46.25,39.05q-8.15-9.48-26.89-32.45-11.55-13.11-12.55-15.18l.82-.12-.06-.38-.82.13-.32.43c-2.17-2.47-3.32-4.14-3.45-5l3-.46.13.82,1.95-.3,1.93.09.13-1.64,2,.08,2.25-.35,2.09-1.86,1.24.58.37-.06q-.28-1.87,3.05-3.16l1.18.2-.12-.75.38-.05q3.09,2.13,3.4,4.15c-.65.1-.94.66-.89,1.67l1.24.58.38-.06-.44-.31-.17-1.13,1.12-.17,13,15.79ZM499.89,357l.48,3.07c-1,.26-1.5.72-1.4,1.37l0,.37,2.33-.36c.24,1.55.85,2.25,1.86,2.1l-.19-1.2,2,.15.75-.12,2-1.92-.43-.32-.06-.37c-.1-.65.37-1.11,1.4-1.37l-.06-.38-4.19.65c-2.41-.34-3.68-.94-3.81-1.79Zm-.33-4.63-.32.43.19,1.2.86.63.64-.86-.07-.45Zm6.5,6.82.23,1.5-.63.87-.37.05-.87-.63Zm4.19,14.17.11.75,1.13-.18-.12-.75Zm3.79,2.17.06.38,1.63.13.37-.06-.05-.37-.87-.64Zm1.37.94.17,1.13.64-.87-.06-.37Zm4.47,1.61.07.45,1.57-.24-.06-.45Zm2-.3,1.12-.17.84-2.05-.38.06C522.76,375.72,522.24,376.44,521.83,377.78Zm4.45,18.88.12.75.37-.05.64-.87Zm1.59-15.05-.2,1.18.06.37.37-.05.64-.87-.12-.75Zm.19,6.18,1.12-.17-.11-.75-.38.06Zm28.68-30.91,0-.3-4.2.65-.87-.63a3.5,3.5,0,0,1,2.86-4.36l-.43-.32q-.15-1,1.32-1.35l-.93-1.09-.12-.75a37.8,37.8,0,0,1,5.43-10.58l-.83.13a156.63,156.63,0,0,1,8.21-20.38L590,314.36q-.64,3.25-9.29,23.31-2.81,8.65-4.45,8.9.35,2.25-.78,2.43l-1.29,2.11-.11-.75-1.13.18.12.75-1.82.66c-.94.2-2.08.4-3.43.61l.11.75,1.94.08.63-.86,1.69.5q2.25-.34,2.07-1.47l.75-.11.06.37-2.18,5.79q0,1.53-3.7,8.78l-.43-.31-.83.12.06.38.82-.13q-.33,2.28-7.38,18.26-10.93,27.56-15.84,39.05l-6-38.9,7.65-19,1.13-.17.17,1.12-.31.44.37-.06,1-.93c-.26-1-.71-1.42-1.36-1.32q-.32-2,3.24-7.33l.38-.06.11.75,1.07-.55A9,9,0,0,1,556.74,356.88ZM546.84,410l.87.63.37-.06-.11-.75Zm.53-38.31-.38.06,1.41,1.7,1.13-.17C548.74,372.11,548,371.58,547.37,371.68Zm.1,17.56-.37.06.11.75,1.13-.17Zm2.28-9.1.11.75.87.64.37-.06-.05-.38L550.5,380Zm.15-6.93.07.45,1.58-.24-.07-.45Zm5.12-4.63-.63.87.06.37.37-.06,1.52-.61-.06-.38Zm-.52,1.62.06.37.87.64-.18-1.13Zm6.64-19.6c.84-.85.57-1.11-.81-.8l-4.2.65.06.38c1.07-.07,1.65.23,1.75.88l.06.37-.32.43,2.49,1.23.75-.11,1.88-.76.19,1.2c1-.15,1.38-1,1.14-2.55l2.32-.36-.06-.38c-.91.09-1.89.17-3,.23l-1.54-.53ZM559,357l-1.42.22a1.07,1.07,0,0,1,.24.58l.38-.06Zm-.87,8.74.12.75,1.12-.18-.12-.75ZM561.05,352l-.63.87-.38.06-.86-.64-.23-1.5Zm7.39,5.61-1.87-.17.06.38-4.75-.49-2.25.34-.12-.75-.22,0,.73,1.8,2.25-.35,1.9-.67.61,1.51,1.82-.66,1.95-.3Zm-2.7-15,.07.45.86.63.64-.87-.19-1.2-.43-.31Zm6.13,14.86a1.42,1.42,0,0,1-.35-.79l-1.12.17-.45.61Zm10.26,68.33-.43-.32-1.21-10.32-2.31-14.92a5.5,5.5,0,0,1,3.85-2.9l-.92-1-.3-1.95-3.19-.27-.54-3.45.64-.86-.93-1-1.65-10.72-1.39-11.45q-.42-2.7,7.72-21.07l.43.31.63-.86-.75.11,8.27-22,.82-.12L601,388.19c.08.5-.4.83-1.45,1l0,.38c1.05-.17,1.62,0,1.69.5l4.19,27.06c.08.5-.54.85-1.83,1.05l.11.75,1.95-.3.42,2.7-.71.88-12.52,1.93-2.76,0-1.44.61-3.44.53-.44-.31-.31.43ZM575.22,325l.06.38.71-.88-.06-.37Zm3.1,73.66-.43-.31-.29-1.88.62-.94,1.2-.18.88.7.11.75a4,4,0,0,1-2,2.24Zm2-14.74-.11-.75-1.82.67.06.37.43.32Zm5.24,1.11-.87-.63-.37,0,.12.75Zm2.68,27.29-1.29-.95-.21,1.18.06.38Zm2.6-56.2-.12-.75-.37.06-.64.87Zm1.53,57.56-.12-.75-1.95.3.12.75Zm-1-11.58-.23-1.5-.63.86Zm.61,16.33-1.2.18.06.38.43.31Zm5.42,2.3-.13-.82-.86-.63.24,1.57Zm.92-6.43.75-.12-1.67-.89-.75.12.06.37ZM598,394.1l1.82-.66-.06-.38-.37.06-1.82.66.06.38Zm.34,10.08,2.14-1.48,0-.38-1.13.18c-.5.07-.69.49-.57,1.24l-.83.13.06.37Z"/><path class="cls-2" d="M596.67,313.33l22.94-3.55.86.64,1.36,8.77-.62.94-.75.11c-.1-.64-.87-1.32-2.31-2l-.12-.75-.37.06-.32.43L617,318l2.86,3.09-1.72,1.8.37-.06,3.16-2.4.43.31,7.39,47.75-1.88.29-2.13-.9a1.38,1.38,0,0,1-1.26,1.81c.23,1.5.1,2.28-.4,2.36l-1.95.3-1.24-.57-.56,1.31.43.32,2.25-.35.11.75a3.75,3.75,0,0,1,3.37,1.4l.57-1.24c-.75.12-1.16-.08-1.24-.58l-.36-2.32,2.33-.36.86.63.3,1.95c-.8.13-1.16.44-1.08.94a3.25,3.25,0,0,1,3,1.53l.71,4.57-2.24,3.42,2-.3-.23-1.5.75-.12,2.59,16.79c-.33,1.13-.88,1.75-1.63,1.87l.87.63,1.07-.55,1.64,10.65-.75.11c-.19-1.25-.54-1.83-1-1.76l-2.49-.76.05.37c.07.4.9.66,2.5.77l.68,1.89,0,.37-.95,1.3-.82.13-2.55-1.6.07.45,2.22,2-.2,1.18.37-.06q2.32-.36,2.1-1.86l1.12-.17.48,3.07-.64.87-2.32.36-1.24-.58-.64.87-2.69.41c-.5.08-.81-.26-.93-1l-2.32.35c.11.75-.08,1.17-.58,1.24l-1.87.29-2.61-1.51-.38.06.29,1.87-4.57.71-.18-1.13-2.32.36.06.38.82-.13.12.75-1.57.24-.87-.63-.06-.37.57-1.32-.29-1.87-.75.11-.54-3.45,1.16-2.48c-.13-.8-.57-1.14-1.31-1l-.44-.32-.41-2.7.63-.86,1.57-.25,1.24.58,1.13-.17-.44-.32-2-.46-1.18-2.12-.75.11.29,1.88-.75.11L607.91,391l.63-.86.37-.06,2.44.39.07.45,1.81-.74,3.07-.48c-.08-.49-.62-.67-1.61-.51l-.12-.75-2.7.41-.86-.63.13-1.63q-1.5.22-2.15-4l-.38.52-1.13.18-.87-.71-.47-3,1.13-.18-.45-.39-.05-.37.2-1.18-1.42-1.7L596,314.2Zm3.32,14,.11.75.94.63.32-.44-.06-.37-.86-.64Zm3.75-13.93-.56,1.31.37-.05,1.06-.63Zm2.09,59.16,2.18,1.19,1.12-.17Q609,372.6,605.83,372.55Zm1.45,11.9a2,2,0,0,1,2.3,1.95c-1,.71-1.39,1.44-1.27,2.19l-.75.11-.54-3.44.32-.44Zm0,0a2,2,0,0,1,2.3,1.95c-1,.71-1.39,1.44-1.27,2.19l-.75.11-.54-3.44.32-.44Zm.34-15.71.29,1.87.75-.11-.29-1.88Zm.33,10.08.07.45a3.1,3.1,0,0,1,2.55,1.14l.38-.06.95-1.3-1.43-1.77-.37.06A3.76,3.76,0,0,1,608,378.82Zm.52-62.63.12.75.43.31.75-.11-.06-.38-.86-.63Zm.95,6.14.06.38,4.86,1.17.44.31.37-.05-.66-1.82-.12-.75.56-1.32-3,.47Zm2.61,70c.15,1,0,1.54-.52,1.62l-1.25-.19-.32.43.18,1.2a1,1,0,0,1,1.38.94l.37-.06a1.71,1.71,0,0,1,1.57-2.24l1.2-.19A4.05,4.05,0,0,0,612,392.31Zm2.27-15.62,0,2.38,1.3.95.11.75-1.81.66-1.13.18-.52,2.07.06.38.94.62.37-.06,1.82-.66.66,1.81.38-.06-.35-2.24c.5-.08.67-.62.52-1.62l.38-.52.38-.06,1.56.22-.07-.45c-.07-.5-.93-.88-2.55-1.14l-.67-1.81-.07-.45.83-.13-.06-.37c-.8.12-1.24-.07-1.31-.57Zm-1.82-6.78.13.82.86.63-.24-1.57Zm2.61,2,.23,1.5,1.2-.18-.06-.38-.55-1.07Zm.15,31.29,1.2-.18.63-.94-1.13.17Zm.28-79.09,1,.69.75-.11-.13-.83Zm.23,71.95.75-.11.64-.87-.75.12Zm1.6-4.54.06.37a1.38,1.38,0,0,1,1.81,1.26L620,393a3.7,3.7,0,0,1,1.42-3.29Q617.23,390.75,617.35,391.49Zm0,25.4,1,1,1.07-.55-.61-1.44Zm.11-39.93.06.38,4.24,2.1-.23-1.5a4.08,4.08,0,0,1-2.48-3.14c-.4.06-.68.74-.84,2.05Zm.14,33.67.12.75.38-.06.63-.86Zm1.09-10.37.11.75c-.75.11-1.08.42-1,.92l1.12-.17.2-1.19-.06-.37ZM618,387.85l1.12-.17.32-.43.37-.06-.54-1.07Zm1.36-19,.87.71c2.14-1.1,3.29-2.07,3.47-2.92l-.44-.31A5.87,5.87,0,0,1,619.38,368.84Zm1.09,45.27.86.63,1.2-.18-.12-.75Zm.1-4.32,0,.38.83-.13c-.09-.55.25-.88,1-1l-.11-.75Zm1.27-22.53.06.38c.06.4,1,.91,2.92,1.54l-.12-.82a1,1,0,0,1-1.3-.95l-.43-.32Zm2.35-4.66-1.18-.2.23,1.5,1.12-.17c-.15-1,.63-1.89,2.35-2.67l-.11-.75-.38.06Zm-.05-28.16.53,3.45.82-.13.2-1.18-1.18-2.19Zm.83-45.25,22.11-3.42q25.93-4,35.58,13.22a21.29,21.29,0,0,1,2.87,8.16l-1.06.54.06.38a1,1,0,0,1,1.29.95q.46,7-.88,7.2l-.73-2.27-1.88.29-.31.43-.38.06-.94-.62-.11-.75.39-.45-.06-.37-1.81-1.26-.31.44-.75.11-.62-1.51-.75.11.43.32-.3.51.11.75.43.31.06.38-.31.43a7.49,7.49,0,0,1,3.64,3.74l.12.75,0,2.75-1.93-.08-.37,0,1.78,1.65-2.62.4,1,3.77-1.15.56.18,1.12,1,1-3.15,2.48a1.74,1.74,0,0,1-2.25-1.65l-3,.47.19,1.2c1.25-.2,3.42.49,6.53,2.06.09.55.75.72,2,.53,1.94.62,3,1.61,3.22,3q4.58-.72,10.43,9.36l-.32.43c1-.15,1.87,1.66,2.76,5.41-.75.11-1.09.42-1,.92a2.7,2.7,0,0,1,1.92,2.47l-.38.06.43.31q.82,9.24-1.21,9.55l1,1.39-.51,1.69-2.76,0-.37.06-1,.92q-2-.22-2.13-.9l-.06-.37.39-.45-.06-.37-.45.07-1.76,1,.13.82c.1.65,1.08,1,2.93,1.08l.18,1.13-1,1.31-1.87.29-.63.94.12.75q1.28-.19,5,2.29-5,7.83-8.83,8.43c.06.4-1.73,1.59-5.36,3.59q-.82.12-2.61-2l-1.06.55-.06-.38-.62-1,.27-1.2-1.95.31-1.25-.65.06.37a10.72,10.72,0,0,1,3.57,5.74l-6.38,1.37-.38.06c-.5.08-.87-.66-1.11-2.21-.75.12-1.22-.45-1.41-1.7l-.45.07.35,2.25c-1.47.43-2.18.82-2.12,1.17l.54,1.07-.31.43-21.36,3.3-.87-.63-2.89-18.66.63-.94,15.29-2.37,1.68,1,.38-.06-.44-.31-.06-.38,2.13-1.17,1.2-.19c.12.8.43,1.16.93,1.09l.75-.12c-.16-1,.66-1.71,2.45-2l5.35-3.13.78,2.57.19,1.19.75-.11c.1.65,1.12,1.26,3,1.83l2.24-.35-.23-1.5c-.75.12-1.16-.07-1.24-.57l-.18-1.2.08-1.93.75-.12c.5-.08.83.38,1,1.38l.45-.07.09-1.93-4.56-1.67-.94-.62-.17-1.13a7.86,7.86,0,0,1,1-4.07l-.71-4.57.32-.43-3.2-5.34,1.69.51.31-.43-.17-1.13-2.7.42-1.74-1.34.31-.44,0-.37-.38.06-1.06.55c-1.43-1.58-5.88-1.78-13.38-.62l-16,2.48-.88-.71-2.77-17.92.64-.86,19-2.94.17,1.12.83-.13q-.3-1.87,5.4-2.75,6.38-4,5.18-11.7l-.05-2.76-.74.12-.48-3.08-.75.12.43.32.07.45-.31.43-.38.06q-4.22-4.41-11.78-3.25l-19.86,3.07-.88-.7-2.89-18.67Zm-.39,98.75.06.38,1,1.07.11.75c.12.75-.35,1.21-1.4,1.37l.06.37,2-.3.08-1.93C625.77,408.53,625.14,408,624.58,407.94Zm0-17.58.06.38,1.57-.25-.5-.3-.06-.38Zm1.57,5.21.06.37.38-.05c-.06-1,.89-1.68,2.84-2l-.23-1.5Q626,394.07,626.19,395.57Zm0-10.51.12.75c.93-.56,1.38-1,1.32-1.36Zm.94-21.72-.45,2.07.06.37,1.44-.6-.67-1.89ZM627,315.08l.06.38.95.7,1.06-.55-.06-.45-1.56-.15Zm.59,61.93.12.74,2.32-.35-.17-1.13Zm2-7.75.59,3.82-.75.12-.11-.75-.79-2.64.31-.43Zm0,0,.59,3.82-.75.12-.11-.75-.79-2.64.31-.43Zm-.36,45.8.11.75,1.2-.19-.11-.75Zm1.95-20.64-.21,1.64,1.2-.18.13-1.64Zm1.51-86,.3,1.95,1.8-.74Zm12.81,1.93.23,1.5.75-.11-.12-.75Zm3.09,88.48c.08.55-.53,1.56-1.84,3,.5-.07,1.64.67,3.42,2.24,0-1.07.31-1.66,1-1.76l-.44-.32.09-1.93-.06-.37a1.07,1.07,0,0,1-1.38-1Zm-1.49-85.58-.32.44.06.37,1.73,1.27a5.51,5.51,0,0,1,3-1.23c-.08-.5-.49-.69-1.24-.57l-1.89.67Zm-.22-3.88.12.75,1.44-.6-.06-.38Zm1.47,55.19,2.33-.36-.87-.64-.75.12Zm1.52-40.84.86.64.75-.12-.55-1.07Zm.27,82.7.18,1.12.7-.88-.5-.3Zm2-9.68.05.37c.27.73,1.35.95,3.25.65l.38-.06a2.1,2.1,0,0,0-2.56-1.14Zm1.4-49-.32.43.13.83q2.39.09,2.55,1.14l.38-.06-.12-.75c-.55.08-.9-.4-1.07-1.45Zm1.3-37.27c.07.5-.29.81-1.09.93l.13.83,1.2-.19c-.09-.55.25-.88,1-1l-.87-.63ZM654.13,412,654,413.6l3.08-.47-.12-.75-1-.7Zm1.44-58.7-.51,1.61,1.57-.24.63-.87-.06-.37Zm.37,55,.23,1.5.37-.06.32-.43.37-.06.44.32-.06-.38C657.55,408.73,657,408.44,655.94,408.24Zm.16-11.38,2,.46.39-.45.37-.06-1.11-1.74C656.66,395.74,656.12,396.34,656.1,396.86Zm.56,13.57.06.37.54,1.07.75-.11.15-1.56Zm.26-8.25.06.37.44.39.06.38-.32.43.38-.06.31-.43,2,.07.75-.11-.24-1.58-2-.07Zm.42-43,.11.75a2.7,2.7,0,0,1,2,.84l.38-.06a3.43,3.43,0,0,0-2.17-1.59Zm.25-41,.12.75,1.82-.67,1.2-.18-.12-.75-1.2.18Zm1.66,3.27.06.38,1.66,3.27.45-.07c-.17-1.05.48-1.81,1.94-2.3l-.54-1.06-1.88.29-1.31-.57Zm.8,22.52.11.75.87.63.37-.06-.6-1.44Zm.72-30.58,1,1.38.37-.06-.23-1.49Zm1,84.58-.14,1.56c1.29-.2,2,.2,2.18,1.2l.37-.06-.17-1.13-.67-1.81Zm.19-72.25c.5.95,1,1.39,1.35,1.33l.32-.43-.17-1.13-.75.12-.44-.32Zm1.15,9.95.12.75,1.38-1-.06-.37-.37.06Zm.64-8.31.1,3.14.43.31,1.5-.23.35-3.2-.45.07Zm1,21.73.17,1.12.82-.13.64-.86Zm.17-29.65.29,1.87,1.12-.17,0-.38C665.65,319.83,665.2,319.39,664.85,319.45Zm.14,36.66c.68,1.07,1.3,1.62,1.87,1.63l.37-.06-1.62-2.51Zm.78,50.22.23,1.5,1.5-.23-.23-1.5Zm.58-41.45.11.75,1.2-.19.64-.86Zm0-20.34.12.75.86.63,3.07-.47-.11-.75,1.87-.29,1.32.56.75-.11c-.13-.85-2-1.33-5.67-1.43l-.83.13Zm1.28-9.56.61,1.44.38-.06c.35-.05.64-.61.89-1.67Zm1.63,51.24.38-.05q.18,1.2,3.23,3c-.1,1-.92,1.67-2.47,1.91a6.31,6.31,0,0,1-2.45-3.46Zm-.85-20.89.12.75,1.12-.18-.11-.75Zm.22-11,.37-.06.64-.87-.38.06Zm1-28.63,1,1-.67,3.64.38-.06,4.4-1.83C673.25,326.31,671.55,325.39,669.65,325.69Zm.55-4.39.06.38c.7-.11,1.59.67,2.67,2.35l.43.32.37-.06.32-.43-.06-.38a3.79,3.79,0,0,0-3.41-2.23Zm2.24,14.47.43.32.07.45-.32.43.06.37.75-.11.39-2.44Zm3.3,26.81c1.3-.2,2.07.48,2.31,2l1.12-.17c-.2-1.3,0-2,.45-2.06l.44.39,3-1.3.37-.06c.5-.08.82.28.94,1.08a2.89,2.89,0,0,0,2.44.39l.12.75c-1.52,2.13-2.18,3.79-2,5l1.3.95.06.38c-.6.09-1.16.59-1.69,1.49l-1.5.23.47,3-2.59,1.16-.86-.63-.39,2.44.6,1.44-.95,1.3,1.43,1.77.12.75c.07.5-.89,1-2.9,1.6l-.44-.31-.31.43,0,.37c.65-.1,1.11.37,1.37,1.4l-.63.87c1.55-.24,2.42.27,2.61,1.51.09.6,1.32,1.08,3.68,1.43-.11-1.31.07-2,.52-2.07l-.51-.31-.06-.37.4-.45-.06-.37,1.93.08.37-.06-3.36-1.4-.32.44-.37.06-.43-.32-.07-.45.46-2,5.26-1.2-.06-.37-.92-1-1.82.66-2.06-.45L683,379l.39-.44-.51-.31-.23-1.5,1-1.38,2.63-.41-.08,2,.43.32.75-.12.16-1.94-.86-2.63.51.3.37-.06.63-.86,0-.38-.44-.31,0-.38c1.39-.88,2.06-1.52,2-1.92l-1.41-1.7c.36-1.64.74-2.49,1.14-2.56l.43.32-.06-.37-1.85-2,.58-1.24-.13-.82-.31.43-.38.06-.43-.32-.32.43-.37.06c-.5.08-.81-.26-.93-1l-5.77.89c-.5.08-1.05-1-1.66-3.27l2.21-1.11.43.32,1.13-.18-.06-.37a5.6,5.6,0,0,1-3.25-.65q-2.67,2.56-2.46,3.91Zm.06-37.84.06.37.86.63-.06-.37Zm.16,3.5.66,1.82L677,330l-.29-1.87Zm1.41,41.92-.59,1.62.43.32-.3.51,2.32-.36-.93-1.08,1.44-.61-.12-.75Zm2.09-49.52.13.82,1.87-.29-.12-.82Zm.87,8.08.17,1.12.75-.11-.29-1.88Zm1.55,7.59.18,1.12-.83.13-.05-.38Zm.59,3.82,1.68.89-2.22,3.49-.38.06-.19-1.2A5.09,5.09,0,0,0,682.47,340.13ZM682,394.85l0,.38.87.63.38-.06-.12-.75-.43-.31Zm.79-57.91.37-.06,1.94.09A2.69,2.69,0,0,1,684,339.9l-.75.11-.05-.37.31-.44-.44-.39Zm1.37,26.73.17,1.12,1.07-.55-.06-.37Zm1.5,27.09-.59,1.62.06.38c1.25-.5,1.84-1,1.77-1.43l-.86-.63Zm3.16-9.86.06.38,1.53,2.45-.08,2,.75-.12c-.07-.5.39-.83,1.39-1l-.12-.75c-.75.11-1.22-.48-1.42-1.78l.57-1.24-.06-.37Zm2.41-9.73.87.63.63-.86Zm.68,19.77.37-.06,2.07.45.11.75-1.33,1.82-.75.11-.86-.63-.25-1.57Zm1.56-12.75.05.38.88.7-.18-1.2Zm.64,4.2.44.32,1.12-.18-.17-1.12-.75.11Z"/><path class="cls-2" d="M689.92,298.91l22.94-3.54.86.63,1.36,8.77-.62.94-.75.12c-.11-.65-.87-1.33-2.31-2l-.12-.75-.37.05-.32.44-.38.06,2.86,3.08-1.72,1.8.38-.05,3.16-2.41.43.32,7.38,47.74-1.87.29-2.14-.9a1.37,1.37,0,0,1-1.25,1.81c.23,1.5.1,2.29-.4,2.37l-1.95.3-1.24-.58-.57,1.32.44.31,2.24-.34.12.75a3.71,3.71,0,0,1,3.36,1.39l.58-1.24c-.75.12-1.16-.07-1.24-.57l-.36-2.33,2.32-.35.87.63.3,1.95q-1.2.18-1.08.93a3.25,3.25,0,0,1,3,1.53l.7,4.58-2.23,3.41,2-.3-.23-1.5.75-.11,2.59,16.79c-.34,1.12-.88,1.74-1.63,1.86l.87.63,1.06-.55,1.65,10.65-.75.11c-.19-1.24-.54-1.83-1-1.75l-2.5-.77.06.38c.06.4.89.65,2.5.76l.67,1.89.06.38-.95,1.3-.82.12-2.55-1.6.07.45,2.22,2-.2,1.18.37-.06c1.55-.23,2.25-.85,2.09-1.85l1.13-.18.47,3.08-.63.86-2.33.36-1.24-.58-.63.87-2.7.42c-.5.07-.8-.26-.92-1l-2.32.36c.11.75-.08,1.16-.58,1.24l-1.87.29-2.62-1.52-.37.06.29,1.87-4.57.71-.18-1.12-2.32.36.06.37.82-.13.12.75-1.58.25-.86-.64-.06-.37.56-1.32-.29-1.87-.75.12-.53-3.45,1.15-2.48c-.12-.8-.56-1.14-1.31-1l-.43-.32-.42-2.69.64-.87,1.57-.24,1.24.57,1.12-.17-.43-.32-2-.46L704.61,389l-.75.12.29,1.87-.75.12-2.25-14.54.64-.87.37-.06,2.44.39.07.45,1.8-.74,3.08-.47c-.08-.5-.62-.67-1.62-.52l-.11-.75-2.7.42-.87-.64.13-1.63q-1.5.24-2.14-4l-.38.52-1.13.17-.88-.71-.46-3,1.12-.17-.44-.39-.06-.38.2-1.18-1.41-1.7-9.51-61.54Zm3.31,14,.12.75.94.62.32-.43-.06-.38-.87-.63ZM697,299l-.57,1.32.38-.06,1.05-.62Zm2.08,59.16,2.18,1.2,1.13-.18C702.28,358.51,701.18,358.16,699.07,358.13Zm1.46,11.9a2,2,0,0,1,2.3,2c-1,.71-1.39,1.44-1.28,2.19l-.75.12-.53-3.45.32-.43Zm0,0a2,2,0,0,1,2.3,2c-1,.71-1.39,1.44-1.28,2.19l-.75.12-.53-3.45.32-.43Zm.33-15.71.29,1.88.75-.12-.29-1.87Zm.33,10.08.07.45a3.12,3.12,0,0,1,2.56,1.14l.37-.06,1-1.29-1.43-1.78-.38.06A3.73,3.73,0,0,1,701.19,364.4Zm.53-62.63.12.75.43.32.75-.12-.06-.37-.87-.64Zm.95,6.15.06.37,4.86,1.17.43.32.38-.06-.67-1.82-.11-.75.56-1.31-3,.46Zm2.61,70c.15,1,0,1.54-.52,1.62l-1.26-.19-.32.43.19,1.2c.8-.12,1.26.19,1.37.94l.38-.06a1.71,1.71,0,0,1,1.57-2.24l1.2-.18A4.06,4.06,0,0,0,705.28,377.89Zm2.26-15.62v2.38l1.29,1,.12.75-1.81.67-1.13.17-.52,2.08,0,.37,1,.62.37-.05,1.82-.67.66,1.82.38-.06-.35-2.25c.5-.08.67-.61.52-1.61l.38-.52.37-.06,1.57.22-.07-.45c-.08-.5-.93-.88-2.56-1.14l-.66-1.82-.07-.45.82-.13,0-.37q-1.2.18-1.32-.57Zm-1.81-6.78.12.82.87.64-.24-1.58Zm2.6,2,.24,1.49,1.2-.18-.06-.37-.55-1.07Zm.16,31.28,1.2-.18.62-.94-1.12.17Zm.28-79.09,1,.7.75-.12-.12-.82Zm.23,72,.75-.12.63-.87-.75.12Zm1.6-4.55.06.38a1.36,1.36,0,0,1,1.8,1.25l.75-.11a3.66,3.66,0,0,1,1.41-3.29Q710.48,376.32,710.6,377.07Zm0,25.4,1,1,1.07-.55-.61-1.44Zm.12-39.92.06.37L715,365l-.23-1.5a4.09,4.09,0,0,1-2.48-3.15c-.4.06-.68.75-.84,2.05Zm.14,33.66.12.75.37,0L712,396ZM712,385.84l.12.75c-.75.12-1.09.42-1,.92l1.13-.17.2-1.18-.06-.38Zm-.69-12.4,1.13-.18.32-.43.37-.06-.55-1.06Zm1.36-19,.88.71c2.13-1.09,3.29-2.07,3.46-2.91l-.43-.32A5.89,5.89,0,0,1,712.62,354.42Zm1.09,45.27.87.63,1.2-.18-.12-.75Zm.1-4.31.06.37.82-.13c-.08-.55.25-.88,1-1l-.11-.75Zm1.28-22.53,0,.37c.07.4,1,.92,2.93,1.54l-.13-.82a1,1,0,0,1-1.3-.95l-.43-.32Zm2.35-4.66-1.19-.21.24,1.5,1.12-.17c-.15-1,.63-1.89,2.35-2.67l-.11-.75-.38.06ZM717.38,340l.53,3.45.83-.13.2-1.18-1.18-2.2Zm.44,53.5.06.37,1,1.08.12.75c.11.74-.35,1.2-1.4,1.36l0,.38,2-.3.08-1.94C719,394.11,718.39,393.54,717.82,393.53Zm0-17.58.06.37,1.57-.24-.51-.31-.06-.37Zm1.57,5.2.06.38.37-.06c0-1,.9-1.67,2.85-2l-.24-1.5Q719.21,379.65,719.44,381.15Zm0-10.51.11.75c.94-.55,1.38-1,1.33-1.36Zm.94-21.71-.45,2.06.06.38,1.44-.61-.68-1.89Zm.5,13.66.11.75,2.33-.36-.17-1.12Zm2-7.75.59,3.83-.75.11-.12-.75-.79-2.64.32-.43Zm0,0,.59,3.83-.75.11-.12-.75-.79-2.64.32-.43Zm-.37,45.8.12.75,1.2-.18-.12-.75Zm2-20.64-.21,1.64,1.2-.18.13-1.63Z"/><path class="cls-2" d="M778,285.53l54.62,101.62-27.73,4.28q-9.83-21.89-10.73-21.74l-29.76,4.6,2.7-20.76,18.29-2.83-.06-.37q-11.35-22.89-17.21-37.86l-.37,0q.69,4.5-6.68,57.6-2,15.81-3.06,18.43l-.75.12.12.75.92,1-1,8.36-.37.06-1.19-.2-1.88.68-1.88.29-1.26-.19-1.81.66-5,.77-2.38,0-1.07.55-.06-.38-.31.44-4.57.7-.77-4.94v-2.38l-.54-1.07.43.32L735,394l.32-.43-.06-.38-1.12.17-.77-4.94.64-.87.75-.11,1.25.18,0-.37-.55-1.07-.83.13-.31.43-1.19-.2-.1-3.13.38-.06L734.91,373l1.24.58.32-.43-.06-.38-1.25-.65,1.19-7.17.45-.07c.08.5.5.7,1.24.58l.36,2.32.62-.94-.52-3.37c-.12-.8.57-1.32,2.07-1.55l-.06-.37-.55-1.07-.75.12c-.85.13-1.4,1.52-1.66,4.17l-.75.11,0-.37,1.12-7.62,1.5-.23.12.75,1.19-.19-.17-1.12-1-1,.47-2.45-.44-.32-.44.07c.27,1.8.16,2.74-.34,2.82l-.37.06,4.5-26.49.37-.06.12.75.75-.11-.92-1c0-2.1.35-3.2,1.1-3.32l-.51-.3-.06-.38,6.4-34.53ZM736.44,382.9c.08.5-.26.81-1,.92l.87.64.37-.06,1.39-1-.12-.75ZM735.86,397l.18,1.13c1-.51,1.46-1,1.4-1.37Zm1.08-28.25.06.37,2.07.45-.55-1.07Zm2,15.64c-1,.16-1.44.64-1.31,1.44l1.5-.24-.13-.82,1.14-.56-.55-1.07-.39.45-.38.06Zm1-34.08.06.38.87.63.32-.43-.12-.75Zm.44,25.65.24,1.57,1.13-.17c-.08-.5.25-.81,1-.93l-.12-.82-1.81.74Zm2.94-31.62c.23,1.5-.18,2.33-1.23,2.5l.44.31,0,.38c-.75.11-1,.7-.88,1.74l1.5-.23c-.32-2.05,0-3.15,1.1-3.31l-.23-1.5Zm-1.52,25.95.12.75,1.58-.25-.12-.75Zm.83-32.9.11.75,1.82-.67-.06-.37Zm.52,56.48.07.45,2,.46q-.12-.75,1.08-.93l-.07-.45-.94-.63-1.5.24Zm.67-30.88.06.38.63-.87-.05-.37Zm3.64,26-.29,3.12,1.11,2.21-2.52,1.54.62,1.05.75-.11c-.09-.55.34-1.13,1.27-1.73l1.87-.29.12.75c.7-.11,1.34.58,1.93,2.08l1.13-.18-1.17-2.58a1,1,0,0,0,.95-1.3l-1.11-2.21-.06-.37.75-.12-.17-1.12-.75.11-.64.87.06.38.91,3.39-3.87-2.17-.23-1.5.58-1.24-.06-.37Zm-1.62-15.4.12.75,2.7-.42-.06-.37-1.18-.21.06.38-.51-.31Zm1-4.07-.4.45.06.37,1.33.64.37-.06,0-.37ZM748,324.09l.12.82,1.64.13-.06-.37-1.33-.64Zm.36,35.09c.85.9,1.58,1.29,2.18,1.2l.36,2.32.75-.11.51-1.62a4.87,4.87,0,0,0-2.6-2Zm.56,26.47.05.38.63,1.05.75-.11-.23-1.5Zm1-18.88.23,1.5.32-.43.45-.07-.62-1.06Zm1.82-13.56-.32.44.06.37,1.13-.17Zm4,30.63c.07.5-.26.8-1,.92a3.72,3.72,0,0,1,1.9,2.39l.38-.06.63-.86-.06-.38C757.35,384.6,756.73,383.93,755.7,383.84Z"/></svg>